<?xml version="1.0" encoding="UTF-8"?><svg id="_レイヤー_1" xmlns="http://www.w3.org/2000/svg" viewBox="0 0 717.18 969.7"><polygon points="443.63 712.64 409.72 721.88 371.81 731.33 371.81 735.21 385.87 745.82 405.46 746.86 437.98 738.38 459.73 737.55 474.24 727.2 474.24 723.32 443.63 712.64" style="fill:#574943;"/><polygon points="660.51 619.06 652.22 652.55 637.34 682.18 637.34 686.06 653.06 692.05 685.53 683.34 706 637.43 717.18 611.86 713.86 589.8 710.34 588.07 678.08 590.31 660.51 619.06" style="fill:#574943;"/><polygon points="432.4 694.7 415.68 706.36 377.69 719.57 371.81 731.33 385.87 741.94 405.46 742.98 437.98 734.49 459.73 733.66 474.24 723.32 473.05 689.93 432.4 694.7" style="fill:#fff;"/><polygon points="447.51 367.24 436.41 417.61 430.81 520.04 423.84 550.38 425.78 696.27 448.54 706.36 477.06 692.77 485 549.82 530.14 403.32 508.39 359.06 476.99 359.06 447.51 367.24" style="fill:#418080;"/><polygon points="660.51 615.17 652.22 648.67 637.34 666.66 637.34 682.18 653.06 688.17 682.84 679.69 703.3 633.78 713.86 610.41 710.34 588.07 698.42 582.2 678.08 586.42 660.51 615.17" style="fill:#fff;"/><polygon points="454.55 365.93 503.33 396.91 532.06 408.97 592.6 535.19 658.72 618.55 692.9 615.95 698.42 582.2 668.08 515.22 639.41 488.67 615.15 359.06 473.22 352.49 454.55 365.93" style="fill:#389998;"/><polygon points="438.84 250.68 447.91 237.6 464.03 179.23 422.47 168.15 400.35 231.34 438.84 250.68" style="fill:#f0c6b4;"/><polygon points="400.35 231.34 374.82 255.25 322.02 316.96 344.75 333.92 422.47 274.36 438.84 250.68 400.35 231.34" style="fill:#f0c6b4;"/><polygon points="468.45 85.24 440.47 107.26 422.47 168.15 442.53 190.81 472.32 190.81 492.08 141.4 489.15 102.42 468.45 85.24" style="fill:#f4efe9;"/><polygon points="550.04 84.85 553.79 102.03 561.38 119.67 553.79 141.59 530.14 155.24 495.47 155.24 484.73 126.91 489.07 89.89 528.35 71.27 550.04 84.85" style="fill:#c7a495;"/><polygon points="553.79 102.03 547.32 130.14 525.25 143.1 499.88 143.1 492.72 93.2 478.27 93.2 451.41 134.02 445.16 215.08 454.55 292.16 447.51 367.24 506.85 393.5 578.2 387.17 615.15 359.06 601.36 292.16 600.81 143.1 573.79 116.37 553.79 102.03" style="fill:#fff;"/><polygon points="476.24 25.98 463.21 41.91 459.91 71.48 463.42 76.44 462.79 84.72 470.65 127.94 487.2 136.42 518.81 123.6 537.03 104.37 537.03 96.71 549.24 87.41 552 78.58 553.79 53.28 530.02 15.23 497.33 15.23 476.24 25.98" style="fill:#f0c6b4;"/><polygon points="476.24 25.98 477.55 42.73 485.82 46.6 507.33 40.26 520.84 34.47 526.9 37.36 527.46 46.6 520.57 59.55 520.57 73.07 526.9 79.95 529.39 89.89 535.74 86.31 535.74 73.34 544.83 66.99 550.35 70.58 552 78.58 561.38 47.7 547.03 11.3 513.95 0 490.51 6.62 476.24 25.98" style="fill:#362c29;"/><path d="M316.36,572.26l-18.49,3.06v84.22l-51.58,89.32-72.93,42.11-9,10.53,18.15,8.51,79.15-44.79,56.18-95.04-1.48-97.91Z" style="fill:#e6e1dd;"/><polygon points="230.61 653.84 230.61 665.95 235.13 668.58 238.76 659.47 305.55 618.55 301.03 615.95 234.59 654.3 234.59 654.3 230.61 653.84" style="fill:#e6e1dd;"/><polygon points="235.13 656.46 235.13 668.58 239.11 663.52 305.55 625.16 305.55 618.55 239.11 656.91 239.11 656.91 235.13 656.46" style="fill:#a39c95;"/><polygon points="172.61 805.89 258.09 757.23 310.88 664.87 310.88 578.84 310.88 568.96 319.67 570.97 319.67 667.09 261.67 765.21 180.86 810 172.61 805.89" style="fill:#574943;"/><path d="M256.72,551.58l51.59,29.75v84.22l-51.59,89.34-72.9,42.11-51.58-29.78v-84.22l51.58-89.32,26.32-15.2,2.86.7,3.48-4.35,40.25-23.24h0ZM258.7,544.93l-76.86,44.38-54.37,94.17v88.75l54.37,31.39,76.86-44.38,54.37-94.16v-88.76l-54.37-31.39h0Z" style="fill:#a39c95;"/><polygon points="218.24 687.37 207.73 693.44 210.13 696.67 210.13 773.37 214.67 776 215.86 770.07 215.86 695.8 219.27 694.63 222.77 690 218.24 687.37" style="fill:#e6e1dd;"/><polygon points="222.77 690 212.27 696.05 214.67 699.27 214.67 776 220.38 772.7 220.38 695.97 220.38 695.97 222.77 690" style="fill:#a39c95;"/><polygon points="202.41 652.04 192.09 669.91 192.09 686.77 203.62 693.43 217 684.28 227.31 666.42 228.52 650.27 217 643.62 202.41 652.04" style="fill:#e6e1dd;"/><polygon points="213.94 658.7 203.62 676.58 203.62 693.43 213.94 699.38 228.52 690.97 238.84 673.08 238.84 656.23 228.52 650.27 213.94 658.7" style="fill:#a39c95;"/><polygon points="230.72 664.81 230.72 673.89 225.17 683.5 217.31 688.05 214.47 686.41 222.31 681.88 227.88 672.27 227.88 663.18 230.72 664.81" style="fill:#e6e1dd;"/><polygon points="227.88 663.18 227.88 672.27 222.31 681.88 214.47 686.41 211.75 684.83 211.75 675.76 217.31 666.15 225.17 661.6 227.88 663.18" style="fill:#836e69;"/><polygon points="196.88 669.3 201.34 671.88 208.77 659.03 204.3 656.43 199.79 657.75 152.81 630.62 148.78 637.61 195.76 664.74 195.76 664.74 196.88 669.3" style="fill:#e6e1dd;"/><polygon points="201.34 671.88 208.77 659.03 204.25 660.32 157.28 633.2 153.24 640.2 200.21 667.33 200.21 667.33 201.34 671.88" style="fill:#a39c95;"/><polygon points="233.69 673.41 226.26 686.27 230.76 684.96 277.75 712.08 281.79 705.08 234.81 677.97 234.81 677.97 233.69 673.41" style="fill:#a39c95;"/><polygon points="215.86 575.18 210.13 578.47 210.13 646.78 210.13 646.78 207.73 652.77 212.27 655.38 218.24 646.71 215.86 643.5 215.86 575.18" style="fill:#e6e1dd;"/><polygon points="212.27 655.38 222.77 649.32 220.38 646.1 220.38 569.38 214.67 572.69 214.67 649.39 214.67 649.39 212.27 655.38" style="fill:#a39c95;"/><polygon points="204.24 693.78 196.82 689.51 195.7 695.36 148.72 776.72 153.24 779.35 157.23 777.92 201.65 701.16 203.12 696.9 204.24 693.78" style="fill:#e6e1dd;"/><polygon points="208.77 696.39 201.34 692.11 200.23 697.96 153.24 779.35 157.28 781.67 204.28 700.31 204.28 700.31 208.77 696.39" style="fill:#a39c95;"/><polygon points="221.73 646.34 226.26 648.97 232.39 647.58 276.65 570.06 277.75 563.7 273.21 561.09 226.24 642.46 226.24 642.46 221.73 646.34" style="fill:#e6e1dd;"/><polygon points="226.26 648.97 233.69 653.26 234.81 647.4 281.79 566.03 277.75 563.7 230.78 645.08 230.78 645.08 226.26 648.97" style="fill:#a39c95;"/><polygon points="195.37 686.31 199.9 676.8 195.37 674.18 191.4 679.25 124.95 717.59 124.95 724.21 129.48 726.81 195.37 686.31" style="fill:#e6e1dd;"/><polygon points="199.9 688.91 199.9 676.8 195.93 681.86 129.48 720.22 129.48 726.81 195.93 688.45 195.93 688.45 199.9 688.91" style="fill:#a39c95;"/><polygon points="121.76 782.28 106.52 773.49 106.52 676.99 126.89 681 121.76 782.28" style="fill:#211a1a;"/><polygon points="180.86 588.84 165.62 574.63 249.19 526.4 264.42 535.19 260.46 542.1 180.86 588.84" style="fill:#574943;"/><polygon points="121.76 685.78 106.52 676.99 165.62 574.63 180.86 583.46 175.45 598.74 135.7 668.18 121.76 685.78" style="fill:#362c29;"/><path d="M264.42,535.19l-83.56,48.27-59.1,102.32v96.5l59.1,34.12,83.56-48.24,59.09-102.37v-96.5l-59.09-34.1ZM315.43,666.61l-54.36,94.14-76.86,44.39-54.37-31.38v-88.77l54.37-94.17,76.86-44.36,54.36,31.38v88.77Z" style="fill:#0a0808;"/><polygon points="235.24 605.32 227.55 600.88 221.84 604.18 227.46 612.02 229.52 694.93 229.52 694.93 235.23 691.63 235.24 605.32" style="fill:#a39c95;"/><polygon points="229.54 608.61 221.84 604.18 221.84 690.48 229.52 694.93 229.54 608.61" style="fill:#d8d1c7;"/><polygon points="275 680.23 328.44 649.39 333.15 652.12 279.68 684.91 275 680.23" style="fill:#836e69;"/><polygon points="279.72 682.96 333.15 652.12 336.5 657.89 283.05 694.18 279.72 682.96" style="fill:#544540;"/><polygon points="283.05 688.75 336.5 657.89 336.5 663.33 283.05 694.18 283.05 688.75" style="fill:#403531;"/><polygon points="279.72 696.11 283.05 694.18 283.05 688.75 279.72 682.96 275 680.23 271.65 682.16 271.65 687.62 275 693.4 279.72 696.11" style="fill:#685750;"/><polygon points="272.79 673.73 275.67 672.07 284.4 677.11 281.47 682.38 272.79 673.73" style="fill:#836e69;"/><polygon points="281.53 678.77 284.4 677.11 290.58 687.82 287.71 699.56 281.53 678.77" style="fill:#544540;"/><polygon points="287.71 689.47 290.58 687.82 290.58 697.91 287.71 699.56 287.71 689.47" style="fill:#403531;"/><polygon points="281.53 703.15 287.71 699.56 287.71 689.47 281.54 678.75 272.79 673.73 266.61 677.3 266.61 687.39 272.79 698.09 281.53 703.15" style="fill:#685750;"/><polygon points="117.47 797.68 90.49 850.8 85.92 848.11 83.05 812.24 112.86 795.04 117.47 797.68" style="fill:#d8d1c7;"/><polygon points="114.55 836.88 90.49 850.8 87.61 814.87 117.47 797.68 114.55 836.88" style="fill:#a39c95;"/><polygon points="93.69 864.45 81.72 857.52 81.72 837.52 99.9 840.93 93.69 864.45" style="fill:#211a1a;"/><polygon points="93.69 844.4 81.72 837.52 93.95 816.29 123.23 813.21 93.69 844.4" style="fill:#362c29;"/><polygon points="135.46 820.3 123.23 813.21 105.88 823.22 93.69 844.4 93.69 864.45 105.88 871.46 123.23 861.49 135.46 840.27 135.46 820.3" style="fill:#0a0808;"/><polygon points="127.34 828.88 127.34 841.1 119.82 854.02 109.29 860.13 106.24 858.36 116.83 852.26 124.29 839.35 124.29 827.1 127.34 828.88" style="fill:#362c29;"/><polygon points="124.29 827.1 124.29 839.35 116.83 852.26 106.24 858.36 101.84 855.8 101.84 843.62 109.29 830.66 119.82 824.53 124.29 827.1" style="fill:#d8d1c7;"/><polygon points="110.06 845.25 108.13 844.16 108.13 840.91 111.06 841.48 110.06 845.25" style="fill:#211a1a;"/><polygon points="110.06 842.04 108.13 840.91 110.12 837.5 114.85 837.02 110.06 842.04" style="fill:#362c29;"/><polygon points="116.83 838.15 114.85 837.02 112.03 838.63 110.06 842.04 110.06 845.25 112.03 846.42 114.85 844.8 116.83 841.4 116.83 838.15" style="fill:#0a0808;"/><polygon points="112.03 838.63 110.12 837.5 112.92 835.89 114.85 837.02 112.03 838.63" style="fill:#574943;"/><polygon points="105.88 823.22 93.95 816.29 111.28 806.31 123.23 813.21 105.88 823.22" style="fill:#574943;"/><polygon points="134.02 807.24 107.1 860.39 102.56 857.73 99.68 821.83 129.46 804.64 134.02 807.24" style="fill:#d8d1c7;"/><polygon points="104.24 824.48 83.05 807 112.86 789.77 134.02 801.99 104.24 824.48" style="fill:#e6e1dd;"/><polygon points="104.24 824.48 83.05 812.24 83.05 807 104.24 819.18 104.24 824.48" style="fill:#d8d1c7;"/><polygon points="131.14 846.5 107.1 860.39 104.24 824.48 104.24 819.18 134.02 801.99 134.02 807.24 131.14 846.5" style="fill:#a39c95;"/><polygon points="122.52 841.73 122.52 844.94 120.53 848.36 117.73 850.01 115.76 848.85 115.76 848.3 118.1 847 120.06 843.57 120.06 840.84 120.53 840.59 122.52 841.73" style="fill:#d8d1c7;"/><polygon points="120.06 840.84 120.06 843.57 118.1 847 115.76 848.3 115.76 845.62 117.73 842.17 120.06 840.84" style="fill:#574943;"/><polygon points="100.69 788.69 105.4 790.92 108.38 809.22 114.08 805.93 114.09 789.84 100.69 788.69" style="fill:#a39c95;"/><polygon points="114.09 789.84 106.4 785.41 100.69 788.69 106.31 796.55 108.38 793.14 114.09 789.84" style="fill:#e6e1dd;"/><polygon points="108.38 793.14 100.69 788.69 100.68 804.77 108.38 809.22 108.38 793.14" style="fill:#d8d1c7;"/><polygon points="59.35 806.36 269.44 690.42 281.24 687.03 281.24 693.61 67.06 817.37 59.35 806.36" style="fill:#a39c95;"/><polygon points="67.06 817.37 59.35 812.92 59.35 806.36 68.96 807.29 67.06 810.79 67.06 817.37" style="fill:#d8d1c7;"/><polygon points="67.06 810.79 59.35 806.36 273.57 682.6 281.24 687.03 67.06 810.79" style="fill:#e6e1dd;"/><polygon points="3.14 852.44 55.22 827.9 67.06 824.51 67.06 831.1 10.85 863.48 3.14 852.44" style="fill:#a39c95;"/><polygon points="10.85 863.48 3.14 859.01 3.14 852.44 12.74 853.38 10.85 856.87 10.85 863.48" style="fill:#d8d1c7;"/><polygon points="10.85 856.87 3.14 852.44 59.35 820.06 67.06 824.51 10.85 856.87" style="fill:#e6e1dd;"/><polygon points="53.66 744.36 58.38 815.85 61.35 827.8 64.18 828.82 67.06 824.51 67.06 745.53 53.66 744.36" style="fill:#a39c95;"/><polygon points="67.06 745.53 59.36 741.09 53.66 744.36 59.29 752.23 61.35 748.82 67.06 745.53" style="fill:#e6e1dd;"/><polygon points="61.35 748.82 53.66 744.36 53.65 823.34 61.35 827.8 61.35 748.82" style="fill:#d8d1c7;"/><polygon points="60.41 715.88 57.12 728.8 61.35 748.82 67.06 745.53 73.82 717.02 60.41 715.88" style="fill:#a39c95;"/><polygon points="73.82 717.02 66.12 712.59 60.41 715.88 63.61 720.34 68.12 720.34 73.82 717.02" style="fill:#e6e1dd;"/><polygon points="68.12 720.34 60.41 715.88 53.66 744.36 61.35 748.82 68.12 720.34" style="fill:#d8d1c7;"/><polygon points="60.44 697.37 65.14 708.37 68.12 720.34 73.82 717.02 73.83 698.51 60.44 697.37" style="fill:#a39c95;"/><polygon points="73.83 698.51 66.14 694.08 60.44 697.37 66.06 705.2 68.13 701.82 73.83 698.51" style="fill:#e6e1dd;"/><polygon points="68.13 701.82 60.44 697.37 60.41 715.88 68.12 720.34 68.13 701.82" style="fill:#d8d1c7;"/><polygon points="60.44 690.8 223.4 602.13 235.24 598.74 235.24 605.32 73.83 698.51 71.42 701.82 68.13 701.82 60.44 690.8" style="fill:#a39c95;"/><polygon points="68.13 701.82 60.44 697.37 60.44 690.8 70.04 691.75 68.13 695.23 68.13 701.82" style="fill:#d8d1c7;"/><polygon points="68.13 695.23 60.44 690.8 227.55 594.29 235.24 598.74 68.13 695.23" style="fill:#e6e1dd;"/><polygon points="235.25 480.61 227.55 476.15 221.85 479.44 227.46 487.29 226.56 548.56 229.54 602.02 232.58 602.85 235.24 598.74 235.25 480.61" style="fill:#a39c95;"/><polygon points="229.54 483.89 221.85 479.44 221.84 597.57 229.54 602.02 229.54 483.89" style="fill:#d8d1c7;"/><polygon points="67.22 599.8 67.22 645.9 70.49 647.8 74.49 639.76 227.48 511.04 224.19 509.17 67.22 599.8" style="fill:#685750;"/><polygon points="70.49 601.7 70.49 647.8 227.48 557.15 227.48 511.04 70.49 601.7" style="fill:#403531;"/><polygon points="73.83 573.78 66.14 569.36 60.44 572.66 66.06 580.5 65.14 683.28 68.12 695.23 71.82 697.37 73.82 691.94 73.83 573.78" style="fill:#a39c95;"/><polygon points="68.13 577.1 60.44 572.66 60.41 690.8 68.12 695.23 68.13 577.1" style="fill:#d8d1c7;"/><polygon points="60.44 566.07 223.4 477.41 235.24 474.01 235.24 480.61 68.13 577.1 60.44 566.07" style="fill:#a39c95;"/><polygon points="68.13 577.1 60.44 572.66 60.44 566.07 70.04 567.02 68.13 570.5 68.13 577.1" style="fill:#d8d1c7;"/><polygon points="68.13 570.5 60.44 566.07 227.55 469.57 235.24 474.01 68.13 570.5" style="fill:#e6e1dd;"/><polygon points="100.45 546.06 81.52 534.51 203.5 464.1 222.53 475.08 214.77 485.48 100.45 546.06" style="fill:#d18067;"/><polygon points="97.41 556.07 78.39 545.09 78.39 539.97 98.05 550.68 98.69 553.78 97.41 556.07" style="fill:#853e2a;"/><polygon points="97.41 550.95 78.39 539.97 81.52 534.51 100.57 545.52 100.19 548.95 97.41 550.95" style="fill:#944e39;"/><polygon points="100.57 545.52 97.41 550.95 97.41 556.07 100.57 557.9 222.53 487.47 225.66 482.04 225.66 476.91 222.53 475.08 100.57 545.52" style="fill:#693121;"/><polygon points="299.84 328.18 283.05 348.6 289.69 363.72 324.65 340.55 313.49 328.18 299.84 328.18" style="fill:#f0c6b4;"/><polygon points="344.75 333.92 327.98 360.18 308.11 337.22 322.02 316.96 340.38 316.96 344.75 333.92" style="fill:#f0c6b4;"/><polygon points="275 359.06 328.44 328.18 333.15 330.94 279.68 363.72 275 359.06" style="fill:#836e69;"/><polygon points="279.72 361.79 333.15 330.94 336.5 336.7 283.05 373 279.72 361.79" style="fill:#544540;"/><polygon points="283.05 367.56 336.5 336.7 336.5 342.15 283.05 373 283.05 367.56" style="fill:#403531;"/><polygon points="279.72 374.94 283.05 373 283.05 367.56 279.72 361.76 275 359.06 271.65 360.98 271.65 366.42 275 372.2 279.72 374.94" style="fill:#685750;"/><polygon points="322.02 316.96 298.81 327.3 299.84 351.96 312.25 357.49 329.92 345.96 324.03 339.92 314.87 342.14 328.44 328.18 322.02 316.96" style="fill:#f0c6b4;"/><polygon points="304.71 354.73 331.3 346.27 328.05 363.37 299.02 381.16 288.25 370.85 304.71 354.73" style="fill:#f0c6b4;"/><polygon points="272.79 352.54 275.67 350.87 284.4 355.93 281.47 361.18 272.79 352.54" style="fill:#836e69;"/><polygon points="281.53 357.57 284.4 355.93 290.58 366.63 287.71 378.38 281.53 357.57" style="fill:#544540;"/><polygon points="287.71 368.28 290.58 366.63 290.58 376.72 287.71 378.38 287.71 368.28" style="fill:#403531;"/><polygon points="281.53 381.95 287.71 378.38 287.71 368.28 281.54 357.56 272.79 352.54 266.61 356.09 266.61 366.19 272.79 376.89 281.53 381.95" style="fill:#685750;"/><polygon points="221.85 414.7 226.56 465.36 229.54 477.31 232.5 479.2 235.24 474.01 235.25 415.86 221.85 414.7" style="fill:#a39c95;"/><polygon points="235.25 415.86 227.55 411.4 221.85 414.7 227.46 422.54 229.54 419.14 235.25 415.86" style="fill:#e6e1dd;"/><polygon points="229.54 419.14 221.85 414.7 221.84 472.87 229.54 477.31 229.54 419.14" style="fill:#d8d1c7;"/><polygon points="250.82 375.09 275.09 366.54 281.24 366.42 281.24 373 249.76 391.16 250.82 375.09" style="fill:#a39c95;"/><polygon points="258.5 379.53 250.82 375.09 273.57 361.97 281.24 366.42 258.5 379.53" style="fill:#e6e1dd;"/><polygon points="245.73 385.33 228.93 410.08 229.54 419.14 230.95 421.49 232.94 424.96 260.65 381.69 245.73 385.33" style="fill:#a39c95;"/><polygon points="258.5 379.53 250.82 375.09 245.08 378.39 247.46 382.8 252.8 382.85 258.5 379.53" style="fill:#e6e1dd;"/><polygon points="252.8 382.85 245.08 378.39 221.85 414.7 229.54 419.14 252.8 382.85" style="fill:#e6e1dd;"/><polygon points="373.86 485.82 211.51 391.48 218.96 387.17 381.42 480.96 377.69 488.67 373.86 485.82" style="fill:#d18067;"/><polygon points="370.84 685.78 208.38 591.96 208.38 396.91 371.46 490.41 373.97 667.21 370.84 685.78" style="fill:#853e2a;"/><polygon points="370.84 490.71 208.38 396.91 211.51 391.48 373.97 485.26 373.6 488.69 370.84 490.71" style="fill:#944e39;"/><polygon points="373.97 485.26 370.84 490.71 370.84 685.78 373.97 687.57 381.42 683.28 384.55 677.84 384.55 482.78 381.42 480.96 373.97 485.26" style="fill:#693121;"/><polygon points="62.61 689.93 352.67 707.77 370.84 699.47 370.84 706.07 225.08 790.31 62.61 689.93" style="fill:#0a0808;"/><polygon points="225.08 790.31 62.61 696.51 62.61 689.93 226.99 780.22 225.08 783.71 225.08 790.31" style="fill:#362c29;"/><polygon points="225.08 783.71 62.61 689.93 208.38 605.69 370.84 699.47 225.08 783.71" style="fill:#574943;"/><polygon points="222.37 765.77 59.47 672.36 59.47 688.11 221.94 781.91 226.74 773.73 222.37 765.77" style="fill:#853e2a;"/><polygon points="370.84 676.46 208.38 582.66 62.61 666.9 225.15 761.38 356.34 688.45 370.84 676.46" style="fill:#d18067;"/><polygon points="225.08 760.7 62.61 666.9 59.47 672.36 221.94 766.14 224.71 764.11 225.08 760.7" style="fill:#944e39;"/><polygon points="221.94 766.14 225.08 760.7 370.84 676.46 373.97 678.28 373.97 694.03 370.84 699.47 225.08 783.71 221.94 781.91 221.94 766.14" style="fill:#693121;"/><polygon points="405.4 703.57 397.7 699.12 392 702.4 397.62 710.26 399.69 793.17 399.69 793.17 405.39 789.88 405.4 703.57" style="fill:#a39c95;"/><polygon points="399.7 706.84 392 702.4 391.99 788.73 399.69 793.17 399.7 706.84" style="fill:#d8d1c7;"/><polygon points="445.16 778.49 498.61 747.63 503.33 750.36 449.83 783.15 445.16 778.49" style="fill:#836e69;"/><polygon points="449.88 781.21 503.33 750.36 506.66 756.14 453.21 792.44 449.88 781.21" style="fill:#544540;"/><polygon points="453.21 786.98 506.66 756.14 506.66 761.58 453.21 792.44 453.21 786.98" style="fill:#403531;"/><polygon points="449.88 794.36 453.21 792.44 453.21 786.98 449.88 781.19 445.16 778.49 441.81 780.41 441.81 785.85 445.16 791.62 449.88 794.36" style="fill:#685750;"/><polygon points="442.96 771.96 445.84 770.31 454.55 775.35 451.62 780.62 442.96 771.96" style="fill:#836e69;"/><polygon points="451.68 777.02 454.55 775.35 460.75 786.06 457.86 797.81 451.68 777.02" style="fill:#544540;"/><polygon points="457.86 787.72 460.75 786.06 460.75 796.15 457.86 797.81 457.86 787.72" style="fill:#403531;"/><polygon points="451.68 801.39 457.86 797.81 457.86 787.72 451.68 777 442.96 771.96 436.75 775.53 436.75 785.62 442.96 796.32 451.68 801.39" style="fill:#685750;"/><polygon points="287.62 895.92 260.65 949.03 256.07 946.35 253.22 910.48 283.03 893.27 287.62 895.92" style="fill:#d8d1c7;"/><polygon points="284.7 935.13 260.65 949.03 257.77 913.11 287.62 895.92 284.7 935.13" style="fill:#a39c95;"/><polygon points="263.84 962.69 251.88 955.75 251.88 935.75 270.05 939.17 263.84 962.69" style="fill:#211a1a;"/><polygon points="263.84 942.63 251.88 935.75 264.11 914.52 293.38 911.45 263.84 942.63" style="fill:#362c29;"/><polygon points="305.62 918.54 293.38 911.45 276.05 921.48 263.84 942.63 263.84 962.69 276.05 969.7 293.38 959.74 305.62 938.51 305.62 918.54" style="fill:#0a0808;"/><polygon points="297.51 927.11 297.51 939.33 289.99 952.28 279.46 958.36 276.41 956.61 287 950.5 294.44 937.61 294.44 925.34 297.51 927.11" style="fill:#362c29;"/><polygon points="294.44 925.34 294.44 937.61 287 950.5 276.41 956.61 271.98 954.04 271.98 941.87 279.46 928.91 289.99 922.78 294.44 925.34" style="fill:#d8d1c7;"/><polygon points="280.22 943.51 278.3 942.4 278.3 939.15 281.23 939.73 280.22 943.51" style="fill:#211a1a;"/><polygon points="280.22 940.28 278.3 939.15 280.29 935.73 285 935.26 280.22 940.28" style="fill:#362c29;"/><polygon points="287 936.4 285 935.26 282.18 936.87 280.22 940.28 280.22 943.51 282.18 944.68 285 943.05 287 939.63 287 936.4" style="fill:#0a0808;"/><polygon points="282.18 936.87 280.29 935.73 283.08 934.13 285 935.26 282.18 936.87" style="fill:#574943;"/><polygon points="276.05 921.48 264.11 914.52 281.43 904.54 293.38 911.45 276.05 921.48" style="fill:#574943;"/><polygon points="304.19 905.49 277.26 958.63 272.71 955.96 269.85 920.05 299.63 902.89 304.19 905.49" style="fill:#d8d1c7;"/><polygon points="274.4 922.71 253.22 905.22 283.03 888.01 304.19 900.22 274.4 922.71" style="fill:#e6e1dd;"/><polygon points="274.4 922.71 253.22 910.48 253.22 905.22 274.4 917.43 274.4 922.71" style="fill:#d8d1c7;"/><polygon points="301.3 944.76 277.26 958.63 274.4 922.71 274.4 917.43 304.19 900.22 304.19 905.49 301.3 944.76" style="fill:#a39c95;"/><polygon points="292.68 939.96 292.68 943.18 290.69 946.6 287.88 948.24 285.92 947.08 285.92 946.55 288.25 945.23 290.22 941.8 290.22 939.09 290.69 938.83 292.68 939.96" style="fill:#d8d1c7;"/><polygon points="290.22 939.09 290.22 941.8 288.25 945.23 285.92 946.55 285.92 943.85 287.88 940.4 290.22 939.09" style="fill:#574943;"/><polygon points="270.85 886.94 275.58 889.18 278.54 907.46 284.25 904.16 284.25 888.09 270.85 886.94" style="fill:#a39c95;"/><polygon points="284.25 888.09 276.55 883.64 270.85 886.94 276.47 894.78 278.54 891.39 284.25 888.09" style="fill:#e6e1dd;"/><polygon points="278.54 891.39 270.85 886.94 270.83 903.01 278.54 907.46 278.54 891.39" style="fill:#d8d1c7;"/><polygon points="229.51 904.59 439.59 788.66 451.41 785.26 451.41 791.85 237.22 915.61 229.51 904.59" style="fill:#a39c95;"/><polygon points="237.22 915.61 229.51 911.16 229.51 904.59 239.13 905.52 237.22 909.03 237.22 915.61" style="fill:#d8d1c7;"/><polygon points="237.22 909.03 229.51 904.59 443.72 780.82 451.41 785.26 237.22 909.03" style="fill:#e6e1dd;"/><polygon points="173.31 950.68 225.39 926.14 237.22 922.74 237.22 929.33 181.01 961.71 173.31 950.68" style="fill:#a39c95;"/><polygon points="181.01 961.71 173.31 957.28 173.31 950.68 182.91 951.63 181.01 955.13 181.01 961.71" style="fill:#d8d1c7;"/><polygon points="181.01 955.13 173.31 950.68 229.51 918.31 237.22 922.74 181.01 955.13" style="fill:#e6e1dd;"/><polygon points="223.81 842.62 228.54 914.1 231.51 926.05 234.33 927.06 237.22 922.74 237.22 843.77 223.81 842.62" style="fill:#a39c95;"/><polygon points="237.22 843.77 229.52 839.34 223.81 842.62 229.45 850.46 231.51 847.07 237.22 843.77" style="fill:#e6e1dd;"/><polygon points="231.51 847.07 223.81 842.62 223.81 921.59 231.51 926.05 231.51 847.07" style="fill:#d8d1c7;"/><polygon points="230.58 814.11 227.27 827.05 231.51 847.07 237.22 843.77 243.98 815.27 230.58 814.11" style="fill:#a39c95;"/><polygon points="243.98 815.27 236.29 810.83 230.58 814.11 233.76 818.58 238.28 818.58 243.98 815.27" style="fill:#e6e1dd;"/><polygon points="238.28 818.58 230.58 814.11 223.81 842.62 231.51 847.07 238.28 818.58" style="fill:#d8d1c7;"/><polygon points="230.59 795.6 235.31 806.62 238.28 818.58 243.98 815.27 243.99 796.76 230.59 795.6" style="fill:#a39c95;"/><polygon points="243.99 796.76 236.29 792.32 230.59 795.6 236.22 803.46 238.28 800.07 243.99 796.76" style="fill:#e6e1dd;"/><polygon points="238.28 800.07 230.59 795.6 230.58 814.13 238.28 818.58 238.28 800.07" style="fill:#d8d1c7;"/><polygon points="178.31 945.97 0 843.65 0 850.63 177.85 953.32 182.67 945.14 178.31 945.97" style="fill:#544540;"/><polygon points="228.37 913.56 50.51 810.88 3.14 838.21 181.08 941.58 213.86 925.56 228.37 913.56" style="fill:#836e69;"/><polygon points="181.01 940.91 3.14 838.21 0 843.65 177.85 946.34 180.64 944.32 181.01 940.91" style="fill:#685750;"/><polygon points="177.85 946.34 181.01 940.91 228.37 913.56 231.49 915.37 231.49 922.35 228.37 927.79 181.01 955.13 177.85 953.32 177.85 946.34" style="fill:#403531;"/><polygon points="92.82 866.99 72.59 881.14 47.37 898.48 47.37 900.54 50.99 907.45 65.8 907.45 90.82 893.21 108.38 873.34 125.16 865.54 134.02 855.5 134.02 853.41 126.39 849.74 92.82 866.99" style="fill:#fff;"/><polygon points="155.44 880.13 134.46 901.36 110.12 920.1 85.07 924.35 85.07 926.42 102.54 935.22 126.89 929.12 161.58 900.54 172.61 892.35 175.51 881 175.51 878.93 155.44 880.13" style="fill:#fff;"/><polygon points="88.18 839.68 74.79 858.36 47.37 884.84 47.37 898.48 50.99 905.36 65.8 905.36 90.82 891.13 108.38 871.28 125.16 863.48 134.02 853.41 132.45 828.82 121.76 822.44 88.18 839.68" style="fill:#574943;"/><polygon points="88.18 839.68 81.51 850.18 85.59 855.91 97.47 856.9 111.03 842.62 88.18 839.68" style="fill:#362c29;"/><polygon points="81.72 804.64 88.18 839.68 100.11 847.02 120.11 843.81 126.04 828.99 121.76 797.89 81.72 804.64" style="fill:#9c7a98;"/><polygon points="192.09 568.96 148.72 594.29 101.84 643.62 76.8 681.72 64.28 694.08 57.5 727.14 78.39 811.86 91.35 822.17 110.12 822.44 124.95 804.64 113.05 725.62 234.44 614.73 220.27 567.83 192.09 568.96" style="fill:#b38cae;"/><polygon points="134.02 869.06 113.05 890.29 88.73 909.03 85.07 919.2 85.07 924.35 102.54 933.14 126.89 927.06 161.58 898.48 172.61 890.29 175.51 878.93 171.88 858.36 134.02 869.06" style="fill:#574943;"/><polygon points="134.02 869.06 127.34 879.56 131.45 885.29 143.31 886.29 156.87 871.99 134.02 869.06" style="fill:#362c29;"/><polygon points="130.58 835.89 134.02 869.06 145.96 876.41 165.94 873.19 171.88 858.36 166.37 828.81 130.58 835.89" style="fill:#b38cae;"/><polygon points="221.94 608.26 182.67 643.56 110.12 719.29 98.69 752.23 114.09 789.84 119.14 827.8 135.46 839.34 152.01 840.84 164.69 832.52 170.32 820.06 168.87 779.35 159.95 747.79 290.58 673.41 320.28 633.94 327.98 582.21 261.03 582.21 221.94 608.26" style="fill:#cca7cf;"/><polygon points="193.65 428.91 174.58 464.1 140.88 488.67 110.01 515.21 81.52 548.02 78.39 567.83 93.43 591.96 104.58 586.54 110.59 573.34 121.76 562.35 124.95 544.93 124.95 526.4 165.62 507.94 193.65 491.75 203.62 474.01 212.27 430.81 193.65 428.91" style="fill:#f0c6b4;"/><polygon points="177 467 187.51 470.46 194.59 479.44 185.79 474.32 177 467" style="fill:#c7a495;"/><polygon points="228.93 359.06 213.75 366.42 204.88 382.78 192.09 427.07 200.02 436.24 216.31 437.92 241.1 378.39 228.93 359.06" style="fill:#a3493c;"/><polygon points="234.44 379.53 221.73 398.49 215.02 415.59 200.21 449.23 199.16 470.76 204.07 488.67 201.04 536.91 192.09 568.96 204.88 583.95 211.75 598.74 225.08 611.19 248.55 607.4 275 608.48 297.95 614.73 319.15 603.33 327.98 582.21 327.98 548.02 336.5 509.17 345.68 415.59 321.68 391.48 305.52 365.93 263.11 370.74 234.44 379.53" style="fill:#c26a5e;"/><polygon points="303.92 348.15 305.52 365.93 310.69 379.58 301 402.19 268.88 403.32 251.79 392.88 257.5 371.5 286.05 343.86 303.92 348.15" style="fill:#c7a495;"/><polygon points="226.1 304.71 220.81 318.64 220.81 333.23 223.46 336.64 223.46 352.49 231.65 370.76 232.82 386.65 243.25 393.5 262.54 392.09 289.1 373.07 293.1 356.16 300.41 352.49 303.98 348.8 310.69 338.94 309.05 325.65 277.05 297.64 245.54 294.2 226.1 304.71" style="fill:#f0c6b4;"/><polygon points="309.66 243.23 297.6 255.27 297.6 272.28 309.66 284.33 326.67 284.33 338.7 272.28 338.7 255.27 326.67 243.23 309.66 243.23" style="fill:#a39c95;"/><polygon points="299.22 259.93 289.78 269.37 289.78 282.72 299.22 292.16 312.57 292.16 322.02 282.72 322.02 269.37 312.57 259.93 299.22 259.93" style="fill:#574943;"/><polygon points="299.69 263.91 275.12 259.93 251.68 266.51 228.67 291.65 226.1 304.71 233.82 315 247.31 321.64 260.4 321.43 269.4 327.2 271.97 337.36 280.12 345.43 284.54 352.49 289.38 346.13 293.97 344.65 298.39 336.21 306.13 333.4 307.4 341.08 303.98 348.8 314.84 344.52 327.98 327.93 327.98 299.07 313.98 276.79 299.69 263.91" style="fill:#a39c95;"/><polygon points="305.27 485.51 293.49 503.12 275.8 509.3 257.06 503.64 275.33 506.06 292.21 500 305.27 485.51" style="fill:#b55c4f;"/><polygon points="230.59 789.02 393.57 700.36 405.4 696.97 405.4 703.57 243.99 796.76 241.58 800.07 238.28 800.07 230.59 789.02" style="fill:#a39c95;"/><polygon points="238.28 800.07 230.59 795.6 230.59 789.02 240.2 789.99 238.28 793.48 238.28 800.07" style="fill:#d8d1c7;"/><polygon points="238.28 793.48 230.59 789.02 397.7 692.53 405.4 696.97 238.28 793.48" style="fill:#e6e1dd;"/><polygon points="405.42 578.84 397.71 574.4 392.01 577.69 397.63 585.54 396.71 646.8 399.7 700.26 402.73 701.08 405.4 696.97 405.42 578.84" style="fill:#a39c95;"/><polygon points="399.7 582.15 392.01 577.69 392.01 695.82 399.7 700.26 399.7 582.15" style="fill:#d8d1c7;"/><polygon points="237.36 698.03 237.37 744.14 240.64 746.04 244.66 738.02 397.63 609.29 394.36 607.4 237.36 698.03" style="fill:#685750;"/><polygon points="240.64 699.93 240.64 746.04 397.63 655.4 397.63 609.29 240.64 699.93" style="fill:#403531;"/><polygon points="243.99 672.04 236.29 667.6 230.59 670.88 236.22 678.74 235.31 781.52 238.28 793.48 242.01 795.6 243.98 790.18 243.99 672.04" style="fill:#a39c95;"/><polygon points="238.28 675.34 230.59 670.88 230.58 789.02 238.28 793.48 238.28 675.34" style="fill:#d8d1c7;"/><polygon points="230.59 664.3 393.57 575.65 405.4 572.26 405.4 578.84 238.28 675.34 230.59 664.3" style="fill:#a39c95;"/><polygon points="238.28 675.34 230.59 670.88 230.59 664.3 240.2 665.26 238.28 668.75 238.28 675.34" style="fill:#d8d1c7;"/><polygon points="238.28 668.75 230.59 664.3 397.7 567.83 405.4 572.26 238.28 668.75" style="fill:#e6e1dd;"/><polygon points="270.61 644.31 251.68 632.76 373.65 562.35 392.7 573.34 384.94 583.7 270.61 644.31" style="fill:#d18067;"/><polygon points="267.57 654.3 248.55 643.33 248.55 638.2 268.19 648.91 268.83 652 267.57 654.3" style="fill:#853e2a;"/><polygon points="267.57 649.18 248.55 638.2 251.68 632.76 270.73 643.75 270.34 647.18 267.57 649.18" style="fill:#944e39;"/><polygon points="270.73 643.75 267.57 649.18 267.57 654.3 270.73 656.14 392.7 585.72 395.83 580.27 395.83 575.13 392.7 573.34 270.73 643.75" style="fill:#693121;"/><polygon points="445.16 457.28 498.61 426.43 503.33 429.16 449.83 461.97 445.16 457.28" style="fill:#836e69;"/><polygon points="449.88 460.02 503.33 429.16 506.66 434.95 453.21 471.24 449.88 460.02" style="fill:#544540;"/><polygon points="453.21 465.79 506.66 434.95 506.66 440.39 453.21 471.24 453.21 465.79" style="fill:#403531;"/><polygon points="449.88 473.18 453.21 471.24 453.21 465.79 449.88 460.02 445.16 457.28 441.81 459.23 441.81 464.67 445.16 470.46 449.88 473.18" style="fill:#685750;"/><polygon points="468.45 418.57 450.67 434.95 451.68 453.52 462.66 447.19 470.8 461.09 449.88 473.18 476.31 480.17 496.58 456.48 496.58 427.66 485.68 417.61 468.45 418.57" style="fill:#f0c6b4;"/><polygon points="553.79 247.6 544.29 316.28 520.84 344.39 494.93 387.17 468.45 418.57 496.58 427.66 565.52 367.56 585.37 321.79 604.67 267.88 598.33 239.34 570.76 234.93 553.79 247.6" style="fill:#f0c6b4;"/><polygon points="600.81 143.1 572.96 166 553.79 247.6 583.16 267.88 604.67 267.88 631.41 197.86 626.61 159.07 600.81 143.1" style="fill:#f4efe9;"/><polygon points="442.96 450.78 445.84 449.11 454.55 454.16 451.62 459.44 442.96 450.78" style="fill:#836e69;"/><polygon points="451.68 455.82 454.55 454.16 460.75 464.88 457.86 476.63 451.68 455.82" style="fill:#544540;"/><polygon points="457.86 466.53 460.75 464.88 460.75 474.95 457.86 476.63 457.86 466.53" style="fill:#403531;"/><polygon points="451.68 480.17 457.86 476.63 457.86 466.53 451.68 455.82 442.96 450.78 436.75 454.35 436.75 464.44 442.96 475.13 451.68 480.17" style="fill:#685750;"/><polygon points="392.01 512.95 396.71 563.59 399.7 575.54 402.65 577.44 405.4 572.26 405.42 514.09 392.01 512.95" style="fill:#a39c95;"/><polygon points="405.42 514.09 397.71 509.66 392.01 512.95 397.63 520.78 399.7 517.38 405.42 514.09" style="fill:#e6e1dd;"/><polygon points="399.7 517.38 392.01 512.95 392 571.11 399.7 575.54 399.7 517.38" style="fill:#d8d1c7;"/><polygon points="420.95 473.35 445.24 464.77 451.41 464.65 451.41 471.24 419.93 489.42 420.95 473.35" style="fill:#a39c95;"/><polygon points="428.67 477.79 420.95 473.35 443.72 460.2 451.41 464.65 428.67 477.79" style="fill:#e6e1dd;"/><polygon points="415.89 483.58 399.09 508.33 399.7 517.38 401.13 519.75 403.09 523.2 430.81 479.93 415.89 483.58" style="fill:#a39c95;"/><polygon points="428.67 477.79 420.95 473.35 415.27 476.63 417.62 481.04 422.96 481.09 428.67 477.79" style="fill:#e6e1dd;"/><polygon points="422.96 481.09 415.27 476.63 392.01 512.95 399.7 517.38 422.96 481.09" style="fill:#e6e1dd;"/><path d="M511.69,685.02l-18.51,3.06v84.21l-51.58,89.34-72.92,42.08-9.01,10.56,18.16,8.5,79.15-44.79,56.19-95.06-1.47-97.92Z" style="fill:#e6e1dd;"/><polygon points="425.92 766.61 425.92 778.73 430.44 781.36 434.08 772.23 500.87 731.33 496.33 728.73 429.9 767.08 429.9 767.08 425.92 766.61" style="fill:#e6e1dd;"/><polygon points="430.44 769.22 430.44 781.36 434.42 776.28 500.87 737.93 500.87 731.33 434.42 769.69 434.42 769.69 430.44 769.22" style="fill:#a39c95;"/><polygon points="367.92 918.66 453.4 870 506.17 777.65 506.17 691.62 506.17 681.72 514.98 683.74 514.98 779.85 456.98 877.99 376.17 922.78 367.92 918.66" style="fill:#574943;"/><path d="M452.06,664.34l51.57,29.78v84.21l-51.57,89.33-72.93,42.1-51.57-29.77v-84.23l51.57-89.3,26.33-15.21,2.85.7,3.49-4.35,40.26-23.25h0ZM454.03,657.7l-76.87,44.38-54.38,94.15v88.77l54.38,31.4,76.87-44.39,54.36-94.15v-88.77l-54.36-31.38h0Z" style="fill:#a39c95;"/><polygon points="413.55 800.15 403.06 806.22 405.45 809.43 405.45 886.13 409.98 888.74 411.16 882.85 411.16 808.58 414.57 807.39 418.09 802.75 413.55 800.15" style="fill:#e6e1dd;"/><polygon points="418.09 802.75 407.6 808.82 409.98 812.05 409.98 888.74 415.68 885.46 415.68 808.75 415.68 808.73 418.09 802.75" style="fill:#a39c95;"/><polygon points="397.71 764.8 387.39 782.68 387.39 799.53 398.94 806.19 412.29 797.06 422.62 779.19 423.84 763.05 412.29 756.38 397.71 764.8" style="fill:#e6e1dd;"/><polygon points="409.25 771.47 398.94 789.35 398.94 806.19 409.25 812.15 423.84 803.71 434.15 785.85 434.18 769.01 423.84 763.05 409.25 771.47" style="fill:#a39c95;"/><polygon points="426.02 777.58 426.02 786.66 420.48 796.28 412.61 800.83 409.79 799.19 417.64 794.65 423.19 785.02 423.19 775.96 426.02 777.58" style="fill:#e6e1dd;"/><polygon points="423.19 775.96 423.19 785.02 417.64 794.65 409.79 799.19 407.05 797.61 407.05 788.53 412.61 778.92 420.48 774.39 423.19 775.96" style="fill:#836e69;"/><polygon points="392.19 782.08 396.65 784.67 404.09 771.79 399.64 769.21 395.11 770.52 348.12 743.4 344.09 750.39 391.06 777.51 391.06 777.51 392.19 782.08" style="fill:#e6e1dd;"/><polygon points="396.65 784.67 404.09 771.79 399.58 773.1 352.59 745.98 348.56 752.97 395.54 780.11 395.54 780.11 396.65 784.67" style="fill:#a39c95;"/><polygon points="428.99 786.17 421.56 799.04 426.08 797.74 473.05 824.84 477.11 817.86 430.13 790.72 430.13 790.72 428.99 786.17" style="fill:#a39c95;"/><polygon points="411.16 687.96 405.46 691.24 405.46 759.54 405.45 759.54 403.06 765.54 407.6 768.16 413.55 759.48 411.16 756.25 411.16 687.96" style="fill:#e6e1dd;"/><polygon points="407.6 768.16 418.09 762.08 415.68 758.87 415.68 682.14 409.98 685.44 409.98 762.15 409.98 762.17 407.6 768.16" style="fill:#a39c95;"/><polygon points="399.58 806.56 392.14 802.27 391.03 808.12 344.03 889.49 348.56 892.11 352.54 890.69 396.98 813.92 398.45 809.67 399.58 806.56" style="fill:#e6e1dd;"/><polygon points="404.09 809.18 396.66 804.87 395.54 810.74 348.56 892.11 352.61 894.44 399.59 813.07 399.59 813.07 404.09 809.18" style="fill:#a39c95;"/><polygon points="417.05 759.12 421.59 761.74 427.7 760.33 471.95 682.84 473.05 676.46 468.54 673.86 421.56 755.23 421.56 755.23 417.05 759.12" style="fill:#e6e1dd;"/><polygon points="421.59 761.74 429.01 766.02 430.13 760.18 477.11 678.81 473.05 676.46 426.08 757.83 426.08 757.83 421.59 761.74" style="fill:#a39c95;"/><polygon points="390.69 799.09 395.22 789.56 390.69 786.93 386.71 792.02 320.28 830.37 320.28 836.97 324.79 839.59 390.69 799.09" style="fill:#e6e1dd;"/><polygon points="395.22 801.69 395.22 789.56 391.24 794.63 324.79 832.98 324.79 839.59 391.24 801.22 391.24 801.22 395.22 801.69" style="fill:#a39c95;"/><polygon points="317.06 895.05 301.84 886.24 301.84 789.77 322.21 793.77 317.06 895.05" style="fill:#211a1a;"/><polygon points="376.17 701.61 360.94 687.41 444.5 639.16 459.73 647.96 455.79 654.86 376.17 701.61" style="fill:#574943;"/><polygon points="317.06 798.55 301.84 789.77 360.94 687.41 376.17 696.21 370.76 711.5 331 780.96 317.06 798.55" style="fill:#362c29;"/><path d="M459.73,647.96l-83.56,48.25-59.1,102.34v96.5l59.1,34.14,83.56-48.25,59.1-102.35v-96.5l-59.1-34.11ZM510.75,779.37l-54.36,94.15-76.87,44.37-54.36-31.36v-88.77l54.36-94.16,76.87-44.37,54.36,31.36v88.77Z" style="fill:#0a0808;"/><polygon points="329.48 506.53 334.51 536.67 342.03 557.9 330.03 567.83 277.75 617.72 249.74 629.57 238.84 644.76 238.84 663.18 246.12 668.75 262.89 667.6 268.83 656.14 287.71 643.62 296.47 630.62 365.84 588.84 379.47 568.96 369.47 495.65 329.48 506.53" style="fill:#f0c6b4;"/><polygon points="345.68 415.59 323.51 421.94 315.54 449.96 325.74 510.07 342.46 517.38 365.61 511.95 373.97 498.67 365.19 430.93 345.68 415.59" style="fill:#a3493c;"/></svg>