<?xml version="1.0" encoding="UTF-8"?><svg id="a" xmlns="http://www.w3.org/2000/svg" viewBox="0 0 1687.11 878"><path d="M1372.77,287.57c-16.99,0-32.21-8.79-40.71-23.5h0s-52.56-91.04-52.56-91.04c-8.5-14.72-8.5-32.29,0-47.01,8.5-14.72,23.72-23.5,40.71-23.5h105.13c16.99,0,32.21,8.79,40.71,23.5,8.5,14.72,8.5,32.29,0,47.01l-52.56,91.04c-8.5,14.72-23.72,23.5-40.71,23.5ZM1370.61,241.8c.21.37.72,1.25,2.15,1.25s1.94-.87,2.16-1.25l52.56-91.04c.21-.37.72-1.24,0-2.49-.72-1.24-1.72-1.24-2.15-1.24h-105.13c-.43,0-1.44,0-2.16,1.24-.72,1.24-.21,2.12,0,2.49l52.56,91.04Z" style="fill:#b5ccda;"/><path d="M792.32,878c-79.31,0-143.83-64.52-143.83-143.83,0-12.3,9.97-22.26,22.26-22.26s22.26,9.97,22.26,22.26c0,54.76,44.55,99.31,99.31,99.31s99.31-44.55,99.31-99.31c0-12.3,9.97-22.26,22.26-22.26s22.26,9.97,22.26,22.26c0,79.31-64.52,143.83-143.83,143.83Z" style="fill:#b5ccda;"/><path d="M913.89,756.31c-12.3,0-22.26-9.97-22.26-22.26,0-54.76-44.55-99.31-99.31-99.31s-99.31,44.55-99.31,99.31c0,12.3-9.97,22.26-22.26,22.26s-22.26-9.97-22.26-22.26c0-79.31,64.52-143.83,143.83-143.83s143.83,64.52,143.83,143.83c0,12.3-9.97,22.26-22.26,22.26Z" style="fill:#b5ccda;"/><path d="M1264.13,755.87c-12.3,0-22.26-9.97-22.26-22.26,0-54.76-44.55-99.31-99.31-99.31s-99.31,44.55-99.31,99.31c0,12.3-9.97,22.26-22.26,22.26s-22.26-9.97-22.26-22.26c0-79.31,64.52-143.83,143.83-143.83s143.83,64.52,143.83,143.83c0,12.3-9.97,22.26-22.26,22.26Z" style="fill:#b5ccda;"/><path d="M1020.99,861.72c-12.3,0-22.26-9.97-22.26-22.26v-105.84c0-12.3,9.97-22.26,22.26-22.26s22.26,9.97,22.26,22.26v105.84c0,12.3-9.97,22.26-22.26,22.26Z" style="fill:#b5ccda;"/><path d="M1264.13,866.92c-12.3,0-22.26-9.97-22.26-22.26v-105.84c0-12.3,9.97-22.26,22.26-22.26s22.26,9.97,22.26,22.26v105.84c0,12.3-9.97,22.26-22.26,22.26Z" style="fill:#b5ccda;"/><path d="M792.32,519.65c-79.31,0-143.83-64.52-143.83-143.83,0-12.3,9.97-22.26,22.26-22.26s22.26,9.97,22.26,22.26c0,54.76,44.55,99.31,99.31,99.31s99.31-44.55,99.31-99.31c0-12.3,9.97-22.26,22.26-22.26s22.26,9.97,22.26,22.26c0,79.31-64.52,143.83-143.83,143.83Z" style="fill:#b5ccda;"/><path d="M670.75,398.08c-12.3,0-22.26-9.97-22.26-22.26v-105.84c0-12.3,9.97-22.26,22.26-22.26s22.26,9.97,22.26,22.26v105.84c0,12.3-9.97,22.26-22.26,22.26Z" style="fill:#b5ccda;"/><path d="M913.89,392.87c-12.3,0-22.26-9.97-22.26-22.26v-105.84c0-12.3,9.97-22.26,22.26-22.26s22.26,9.97,22.26,22.26v105.84c0,12.3-9.97,22.26-22.26,22.26Z" style="fill:#b5ccda;"/><path d="M1257.48,396.16c-12.3,0-22.26-9.97-22.26-22.26,0-54.76-44.55-99.31-99.31-99.31s-99.31,44.55-99.31,99.31c0,12.3-9.97,22.26-22.26,22.26s-22.26-9.97-22.26-22.26c0-79.31,64.52-143.83,143.83-143.83s143.83,64.52,143.83,143.83c0,12.3-9.97,22.26-22.26,22.26Z" style="fill:#b5ccda;"/><path d="M1014.34,502c-12.3,0-22.26-9.97-22.26-22.26v-105.84c0-12.3,9.97-22.26,22.26-22.26s22.26,9.97,22.26,22.26v105.84c0,12.3-9.97,22.26-22.26,22.26Z" style="fill:#b5ccda;"/><path d="M1257.48,507.21c-12.3,0-22.26-9.97-22.26-22.26v-105.84c0-12.3,9.97-22.26,22.26-22.26s22.26,9.97,22.26,22.26v105.84c0,12.3-9.97,22.26-22.26,22.26Z" style="fill:#b5ccda;"/><path d="M1525.02,403.06c-5.65,0-11.3-2.13-15.63-6.41-41.02-40.47-41.47-106.77-1-147.79,19.6-19.87,45.77-30.92,73.68-31.11.24,0,.49,0,.73,0,27.64,0,53.67,10.68,73.37,30.11,8.75,8.63,8.85,22.73.21,31.48-8.63,8.75-22.73,8.85-31.48.21-23.54-23.22-61.59-22.97-84.82.58-11.25,11.4-17.39,26.51-17.28,42.53.11,16.02,6.45,31.04,17.86,42.29,8.75,8.63,8.85,22.73.21,31.48-4.35,4.41-10.1,6.63-15.85,6.63Z" style="fill:#b5ccda;"/><path d="M1521.24,519.64c-18.43,0-35.77-7.12-48.9-20.07-8.75-8.63-8.85-22.73-.21-31.48,8.64-8.76,22.73-8.84,31.48-.21,4.74,4.67,11,7.24,17.64,7.24h.18c6.71-.05,13.01-2.7,17.72-7.48,4.71-4.78,7.29-11.11,7.24-17.82-.05-6.71-2.7-13.01-7.48-17.72-8.75-8.63-8.85-22.73-.21-31.48,8.64-8.75,22.73-8.84,31.48-.21,27.34,26.97,27.64,71.16.66,98.51-13.07,13.24-30.51,20.61-49.11,20.73-.16,0-.32,0-.49,0Z" style="fill:#b5ccda;"/><path d="M1554.57,438.71c-6.4,0-12.75-2.75-17.16-8.06l-29.35-35.44c-7.84-9.47-6.52-23.5,2.95-31.34,9.46-7.84,23.5-6.52,31.34,2.95l29.35,35.44c7.84,9.47,6.52,23.5-2.95,31.34-4.15,3.44-9.18,5.12-14.19,5.12Z" style="fill:#b5ccda;"/><path d="M1629.37,412.26c-7.07,0-14.02-3.36-18.34-9.62-6.98-10.12-4.44-23.98,5.68-30.97,27.22-18.79,34.09-56.22,15.31-83.44-18.79-27.22-56.22-34.09-83.44-15.3-10.11,6.99-23.98,4.44-30.96-5.68-6.98-10.12-4.44-23.98,5.68-30.96,47.43-32.72,112.64-20.76,145.36,26.66,32.72,47.43,20.76,112.64-26.66,145.37-3.86,2.66-8.26,3.94-12.62,3.94Z" style="fill:#b5ccda;"/><path d="M167.23,455.82c-5.65,0-11.29-2.13-15.63-6.41-81.92-80.82-82.82-213.21-2-295.14,39.15-39.68,91.41-61.75,147.16-62.12,55.65-.43,108.3,20.97,147.98,60.13,8.75,8.63,8.85,22.73.21,31.48-8.63,8.76-22.73,8.85-31.48.21-64.44-63.57-168.59-62.87-232.17,1.57-63.58,64.44-62.87,168.6,1.57,232.17,8.75,8.63,8.85,22.73.21,31.48-4.36,4.41-10.1,6.63-15.85,6.63Z" style="fill:#29abe2;"/><path d="M158.7,720.04c-32.92,0-65.85-12.42-91.08-37.31-8.75-8.63-8.85-22.73-.21-31.48,8.63-8.75,22.72-8.85,31.48-.21,16.2,15.98,37.62,24.57,60.4,24.54,22.75-.15,44.08-9.16,60.06-25.36,15.98-16.19,24.69-37.65,24.54-60.4-.15-22.75-9.16-44.08-25.36-60.06-8.75-8.63-8.85-22.73-.21-31.48,8.63-8.75,22.72-8.85,31.48-.21,50.91,50.23,51.47,132.51,1.24,183.42-25.33,25.68-58.83,38.55-92.34,38.55Z" style="fill:#29abe2;"/><path d="M234.2,536.63c-6.4,0-12.76-2.74-17.16-8.06l-66.54-80.35c-7.84-9.47-6.52-23.5,2.95-31.34,9.47-7.85,23.5-6.52,31.34,2.95l66.54,80.35c7.84,9.47,6.52,23.5-2.95,31.34-4.15,3.44-9.19,5.12-14.19,5.12Z" style="fill:#29abe2;"/><path d="M403.76,476.66c-7.07,0-14.02-3.36-18.34-9.62-6.98-10.12-4.44-23.98,5.68-30.97,36.09-24.9,60.33-62.37,68.24-105.51,7.91-43.13-1.44-86.77-26.35-122.86-51.41-74.51-153.86-93.3-228.37-41.9-10.12,6.99-23.98,4.44-30.97-5.68-6.98-10.12-4.44-23.98,5.68-30.97,94.71-65.36,224.94-41.47,290.3,53.25,31.66,45.88,43.55,101.35,33.5,156.18-10.06,54.83-40.86,102.46-86.75,134.12-3.86,2.66-8.26,3.94-12.62,3.94Z" style="fill:#29abe2;"/><path d="M7.8,370.99c-18.1-78.73-4.45-159.8,38.42-228.27C89.1,74.24,156.07,26.56,234.81,8.46c78.74-18.1,159.81-4.45,228.27,38.42,68.47,42.88,116.15,109.85,134.25,188.58l-43.39,9.98c-15.43-67.15-56.09-124.26-114.49-160.82-58.39-36.57-127.52-48.2-194.67-32.77-67.14,15.43-124.26,56.09-160.82,114.49-36.57,58.39-48.2,127.53-32.77,194.67l-43.39,9.98Z" style="fill:#b5ccda;"/><path d="M433.02,572.34c-7.99,0-15.7-4.31-19.7-11.86-5.75-10.87-1.6-24.34,9.26-30.09,125.71-66.52,173.87-222.9,107.35-348.61C463.42,56.07,307.03,7.92,181.33,74.43c-10.87,5.75-24.34,1.6-30.09-9.26s-1.6-24.34,9.27-30.09c147.41-78,330.79-21.53,408.79,125.88,78,147.41,21.53,330.79-125.88,408.79-3.32,1.76-6.88,2.59-10.39,2.59Z" style="fill:#b5ccda;"/><path d="M199.21,876.95c-67.05,0-128.16-45.57-144.93-113.52-2.94-11.94,4.34-24,16.28-26.95,11.93-2.96,24,4.34,26.95,16.28,13.84,56.08,70.72,90.43,126.79,76.6,56.07-13.84,90.44-70.71,76.6-126.79-2.94-11.94,4.34-24,16.28-26.95,11.94-2.96,24,4.34,26.95,16.28,19.72,79.91-29.25,160.96-109.16,180.68-11.96,2.95-23.95,4.37-35.75,4.37Z" style="fill:#b5ccda;"/></svg>