<?xml version="1.0" encoding="UTF-8"?><svg id="_レイヤー_1" xmlns="http://www.w3.org/2000/svg" viewBox="0 0 518.07 1000"><path d="M98.22,824.96c-5.63,6.36-5.61,21.07-4.29,37.7,5.25,16.8,23.79,15.49,39.61,17.62,30.55,4.1,45.74,23.82,86.39,23.77,24.15-.03,40.26-4.48,45.33-17.62.75-6.06-3.37-12.21-11.93-18.44,0,0-55.37-21.31-56.8-22.12-1.43-.83-26.24-16.4-26.72-18.03-.48-1.64-9.55-38.11-9.55-38.11h-59.66l-2.39,35.24"/><path d="M69.02,904.45c-5.5,15.12-6.61,19.52-4.29,30.73,2.61,5.94,5.25,8.61,8.11,16.8,3.38,10.13,2.87,27.04,20.42,37.17,20.92,14.19,61.35,14.84,74.08-.28,0-7.38-5.7-23.67-16.3-36.85l-20.53-32.78,1.31-30.7-58.98-11.12-3.82,27.04"/><path d="M167.7,433.4v205.42c-19.23,59.55-56.29,115.46-62.19,174.98,0,25.06,59.15,30.56,74.1,14.45,5.87-46.07,51.25-108.61,78.79-181.38,18.24-73.39,33.35-149.5,28.26-210.79l-118.97-2.68" style="fill:#0b151a;"/><path d="M284.94,441.33c1.68,20.93-31.65,75.96-69.77,100.77-1.68,44.6-8.42,121.94-17.2,172.33-27.57,72.76-52.66,142.49-58.51,188.53-9.93,10.73-39.62,14.92-58.24,8.99-1.5-.46-2.66-.84-3.73-1.37l-1.23-.53c-6.57-3.13-10.91-8-10.91-14.77.44-58.53,12.94-117.67,32.17-177.27l-5.76-264.42-.18-7.38,193.35-4.87" style="fill:#355b82;"/><path d="M81.21,911.95h0c-.71-.31-1.95-.76-3.73-1.37h0l-1.23-.53c-6.57-3.13-10.91-8-10.91-14.77.44-58.53,12.94-117.67,32.17-177.27h0l-4.31-197.85c7.07,5.83,15.31,10.81,24.17,14.94-2.72,56.05,8.53,121.53,15.43,188.55-36.36,37.91-44.06,113.03-51.6,188.31" style="fill:#1d354e;"/><path d="M219.75,129.38c42.43-2.9,97.62,41.6,154.85,76.07l80.38-59.81c16.09-7.31,49.95,35.83,31.41,53.17-33.6,45.46-53.38,56.29-90.05,78.54-21.21,8.37-60.4-9.6-95.1-27.57-30.58-15.83-57.68-31.67-65.93-29.48l-15.57-90.92" style="fill:#355b82;"/><path d="M329.46,471.2c-7.15,7.23-16.04,12.51-27.22,15.18-17.25-2.83-31.42-11.55-43.26-24.73-7.8,30.79-29.3,73.79-39,80.2-11.74,8.85-37.72,10.59-64.82,5.33-9-1.73-18.11-4.27-26.9-7.55-19.64-7.31-37.47-18.44-48.28-33.38-9.01-17.37,7.33-57.84,5.62-106.93l-8.18-64.24-22.68-96.73c31.41-47.86,73.6-75.56,113.69-98.42h90.55c20.75,16.7,32.16,43.49,38.29,75.95,0,0-1,129.98,5.47,161.48,6.46,31.48,30.08,77.66,30.08,77.66,2.14,5.52,1.03,11.74-3.35,16.16" style="fill:#355b82;"/><path d="M209.81,199.24l-67.11-.08,106.39,162.85c30.22-61.62,36.92-120.18.89-184.58l-40.17,21.82" style="fill:#f2f2f2;"/><path d="M208.58,201.37l-1.92,21.76,16.07,20.48c5.68,31.24,15.41,65.28,14.91,89.6l13.05,30.63,13.28-31.06c-8.51-38.17-20.94-72.97-29.8-97.9l-1.01-26.69-17.39-9.39-7.19,2.56" style="fill:#0071bc;"/><path d="M177.59,131.62l-36.44,24.89c-18.23,47.84,27.38,67.49,57.15,94.14l17.47-41.81,43.24,7.25-15.9-68.09-65.52-16.38" style="fill:#fff;"/><path d="M155.17,146.93c-26.87,17.64-12.46,52.22,18.87,83.88,28.23,28.53,73.54,92.16,78.5,138.99-28.06-45.87-78.01-102.83-105.34-119.15l7.97-16.85-18.19,3.5c-17.61-20.57-25.9-42.08-23.57-62.38l41.77-27.98h0Z" style="fill:#183859;"/><path d="M219.75,140.78c39.26,32.43,62.07,166.07,30.12,224.73,35.13-36.43,46.19-91.45,32-177.8l-10.44-5.54,3.02-9.39-33.34-34.56-21.36,2.56" style="fill:#183859;"/><path d="M155.17,547.18c-9-1.73-18.11-4.27-26.9-7.55-3.7-1.38-7.35-2.89-10.88-4.54-8.86-4.13-17.1-9.11-24.17-14.94-5.09-4.19-9.56-8.82-13.23-13.89-1.97-3.8-2.73-8.7-2.73-14.56,0-19.56,8.47-49.76,8.48-84.96,0-2.45-.04-4.92-.12-7.41l-8.18-64.24,50.14-45.07s4.4,28.64-4.02,64.42c26.69,7.8,74.81,22.18,107.61,38.35,20.3,10.01,58.21,46.25,58.73,55.02.27,4.64-19.26,7.4-43.27,7.41-16.18,0-34.39-1.26-49.96-4.04-29.39,2.46-53,8.7-57.23,14.9-26.41,38.75,15.74,81.1,15.74,81.1" style="fill:#1d354e;"/><path d="M451.94,154.19l-3.63-15.75.92-6.81,3.99-9.49,11.11-17.56,18.38-.67,25.35,8.04,9.39,8.43-5.06,11.7-3.95,16.32-9.53,15.44-15.73,8.95c-5.17,4.25-33.7-6.42-31.23-18.61" style="fill:#ca9575;"/><path d="M482.75,173.08h0M482.77,173.07c.11-.06.22-.14.32-.21-.1.08-.21.15-.32.21M483.1,172.85s.02-.01.03-.02c0,0-.01.02-.03.02" style="fill:#354d66;"/><path d="M483.13,172.83s.03-.02.04-.03l4.65-2.64h0l-4.65,2.64s-.02.02-.04.03" style="fill:#354d66;"/><path d="M480.21,173.62c-8.22,0-26.34-11.19-24.2-21.76l-7.71-13.41,3.3-6.28,5.36-8.17,9.2-10.14,10.92.39,23.93,9.42,8.97,1.84,2.39,6.57-3.95,16.32-9.53,15.44-11.09,6.31-4.65,2.64s-.02.02-.04.03c0,0,0,0,0,0,0,0-.01.02-.03.02,0,0,0,0,0,0-.1.07-.21.14-.32.21,0,0-.02,0-.02.01h0c-.66.37-1.53.54-2.54.54" style="fill:#ac7f64;"/><path d="M472.56,171.81c9-.49,10.55-19.31,2.14-26.98l-6.58-5.63-2.62-10.44s-3.68-7.12-6.03-8.62c-2.36-1.51-4.59-2.48-6.91-2.56-3.83-.14-3.67,3.99-3.67,3.99l.54,8.13-.9,8.45,6.82,25.7,17.2,7.95h0Z" style="fill:#ca9575;"/><path d="M466.17,113.86l11.36-2.6s-2.1,12.67-.79,14.57c1.31,1.9,9.92,3.88,9.92,3.88,0,0,.81,3.81,2.83,5.27,2.01,1.46,5.26,2.09,7.92,1.86,2.66-.23,6.11-2.65,6.11-2.65,0,0,8.43,2.87,11.88,1.14,3.45-1.73,2.56-8.5,2.56-8.5l-.51-6.45-19.97-8.63-31.31,2.11h0Z" style="fill:#ca9575;"/><path d="M461.94,112.6l2.39-8.03,14.78-41.27c2.38-7.35,13.78-8.01,11.79,2.32l-8.2,38.29-5.17,7.35-15.6,1.35h0Z" style="fill:#ca9575;"/><path d="M55.68,235.86c-22.88,38.84-39.07,75.1-53,113.43-9.17,25.24,5.81,52.49,34.6,61.88,40.88,13.33,86.51,22.66,142.18,27.53,15.07-3.22,26.96-43.16,16.1-54.96l-101.09-23.33,25.27-42.02c34-48.37-27.29-113.42-64.06-82.54h0Z" style="fill:#355b82;"/><polygon points="401.54 318.93 350.92 452.99 243.31 461.16 248.43 444.72 261.82 401.81 262.97 397.95 268.72 379.54 285.77 324.95 401.54 318.93 401.54 318.93" style="fill:#fff; stroke:#ccc; stroke-miterlimit:10; stroke-width:.5px;"/><path d="M260.21,406.82l-3.69,1.54,2.7,1.78-11.51,36.9c-.72-.16-1.53-.39-2.25-.54l-31.92-15.98-27.51-6.02c-11.33-2.01-4.41-34.12,6.83-33.11l12.76,3.48c11.6-3.48,24.37-6.33,37.85-8.8l21.66,4.94-4.95,15.82h0Z" style="fill:#ca9575;"/><path d="M320.35,435.61l-12.04,3.09-6.74,5.79-7.1,4.09-9.17,3.4c-13.21.15-25.98-2.08-37.58-4.94l11.51-36.9,28.5,18.68,29.31-1.7c10.42.08,10.34,6.64,3.32,8.49h0Z" style="fill:#ca9575;"/><polyline points="375.36 679.88 375.35 679.87 375.71 675.32 375.36 679.88" style="fill:#601912;"/><path d="M129.49,105.09s32.48,30.56,16.64,56.93c-8.85,14.75,23.88,41.6,69.1,32.03,0,0,19.6-7.51,16.22-13.78-7.63-14.1-2.55-23.57,2.5-36.05,5.11-12.4-104.46-39.14-104.46-39.14Z" style="fill:#ca9575;"/><path d="M146.13,162.03c-1.08,1.79-1.57,3.7-1.37,5.76,14.18-18.05,46.78-24.27,46.78-24.27l-51.65-35.8c-1.85-.54-3.47-.94-4.89-1.3l-.52,4.02c8.43,9.86,23.51,31.9,11.66,51.58Z" style="fill:#ca9575;"/><path d="M116.26,87.18s20.07,43.98,59.49,59.27c35.13,13.49,74,20.03,74.36-14.23.17-27.23,1.7-96.75-27.26-106.19-37.4-12.29-53.93-31.82-90.74-13.04,0,0-41.3,25.1-15.84,74.19Z" style="fill:#ca9575;"/><path d="M116.26,87.18s11.74,38.59,59.54,59.87c10.22,4.54,22.76,7.51,32.47,9.54-18.66-8.36-20.93-11.38-36.4-22.69-15.4-11.21,17.52-11-10.84-41.45-9.7-10.36,22.39-20.93,30.5-22.31,48.19-8.56,47.01-21.89,45.97-32.48-1.91-4.33-4.13.89-6.66-2.76l-5.98-7.05c-.71-.68-1.42-1.3-2.02-1.81-6.43-5.11-12.6-9.41-18.72-12.93-20.56,3.53-79.27,13.64-80.45,14.12-.72.21-8.43,14.01-15.7,27.02-.44,9.49,1.74,20.37,8.28,32.95Z" style="fill:#ca9575;"/><path d="M147.05,130.32c.06-3.55-26.95-25.88-19.61-35.48,8.08-10.65,31.92,19.98,33.29,21.65,1.55,1.54.64-9.48-3.99-17.21-5.35-8.77-6.73-19.85-.5-26.92,5.59-6.28,24.3-6.42,35.47-7.09-9.9-3.71-28.34-2.78-37.41-15.14-12.13-16.52-25.75-23-37.73-24.38-53.7,41.99,30.47,104.6,30.47,104.6Z" style="fill:#302d2b;"/><path d="M191.71,65.25s-35.12-.87-52.96-24.83c-3.71-5.14-12.93-13.24-23.79-12.6,0,0,4.36-30.6,56.82-27.62,20.86,1.19,45.31,13.25,50.06,16.81,52.98,39.82-2.55,45.89-30.13,48.24Z" style="fill:#21201f;"/><path d="M216.25,141.4c-16,0-55.91-38.51-59.51-42.13-10.33-10.4,4.39,35.84,45.61,54.56,0,0,43.99,13.95,48.63-14.44,0,0-.7-49.79-1.38-44.04-1.76,14.75,7.29,46.04-33.33,46.04Z" style="fill:#302d2b;"/></svg>