<?xml version="1.0" encoding="UTF-8"?><svg id="_ã¬ã¤ã¤ã¼_1" xmlns="http://www.w3.org/2000/svg" viewBox="0 0 361.71 61.01"><path d="M76.45,5.33c-.69,0-1.07-.54-1.07-1.26s.38-1.22,1.07-1.22h26.43c.69,0,1.07.54,1.07,1.22,0,.71-.38,1.26-1.07,1.26h-12.01v12.54h13.56c.69,0,1.1.54,1.1,1.26s-.41,1.29-1.1,1.29h-13.56v11.73c0,.65-.62,1.02-1.41,1.02s-1.38-.37-1.38-1.02v-11.73h-13.14c-.69,0-1.07-.61-1.07-1.29s.38-1.26,1.07-1.26h13.14V5.33h-11.63ZM79.34,6.82c.34,0,.72.17.96.48,1.38,2.11,2.65,4.79,3.58,7.07.1.27.17.51.17.75,0,.48-.28.82-.83,1.09-.21.1-.45.17-.65.17-.48,0-.93-.27-1.14-.82-.79-2.14-2.06-4.9-3.37-6.97-.1-.17-.17-.37-.17-.58,0-.37.24-.75.69-.99.24-.14.48-.21.76-.21ZM101.5,8.12c0,.17-.03.3-.1.47-1,2.41-2.55,5.3-4.23,7.41-.24.31-.58.44-.93.44-.31,0-.62-.1-.89-.31-.34-.27-.52-.61-.52-.95,0-.2.07-.44.24-.65,1.58-2.11,2.99-4.62,3.96-7.07.17-.44.55-.65.96-.65.24,0,.45.07.69.17.55.21.83.65.83,1.12Z" style="fill:#231815;"/><path d="M135.99,28.55c.83,0,1.24-.31,1.24-1.16V9.61c0-.71.52-1.12,1.38-1.12s1.41.41,1.41,1.12v18.39c0,2.18-1.2,3.2-3.3,3.2h-21.51c-2.13,0-3.3-1.02-3.3-3.2V9.61c0-.71.55-1.12,1.38-1.12s1.41.41,1.41,1.12v17.78c0,.85.38,1.16,1.24,1.16h8.36V3.25c0-.71.58-1.12,1.41-1.12s1.44.41,1.44,1.12v25.29h8.84Z" style="fill:#231815;"/><path d="M149.65,7.64c-.65,0-1.03-.58-1.03-1.33s.38-1.33,1.03-1.33h25.15c.65,0,1.03.58,1.03,1.33s-.38,1.33-1.03,1.33h-11.49v19.45h13.8c.65,0,1,.58,1,1.29,0,.78-.34,1.39-1,1.39h-29.69c-.65,0-1.03-.61-1.03-1.39,0-.71.38-1.29,1.03-1.29h13.01V7.64h-10.77Z" style="fill:#231815;"/><path d="M183.76,9.14c-.58,0-.93-.41-.93-1.09s.34-1.12.93-1.12h4.99c-.55-.99-1.34-2.04-2-2.82-.17-.21-.28-.44-.28-.65,0-.34.24-.65.69-.88.24-.1.48-.17.72-.17.38,0,.72.2,1.03.54.93,1.16,1.86,2.62,2.55,3.98h2.55V2.44c0-.68.52-.99,1.24-.99.83,0,1.24.31,1.24.99v4.49h3.48V2.47c0-.68.48-.99,1.24-.99.83,0,1.24.31,1.24.99v4.45h2.96c1.03-1.29,1.86-2.65,2.48-3.81.28-.51.62-.71,1.07-.71.17,0,.38.03.58.1.52.17.79.61.79,1.02,0,.17-.04.34-.14.48-.52.85-1.24,1.87-2.06,2.92h5.16c.58,0,.93.44.93,1.12s-.34,1.09-.93,1.09h-7.64c-.48,1.26-1.1,2.48-1.79,3.64h8.12c.55,0,.86.41.86,1.02,0,.65-.31,1.05-.86,1.05h-12.42v2.35h10.36c.55,0,.86.41.86,1.02s-.31,1.05-.86,1.05h-10.36v2.38h13.66c.55,0,.89.41.89,1.05s-.34,1.05-.89,1.05h-11.84c3.3,2.69,7.36,4.45,12.25,5.54.65.13.96.64.96,1.19,0,.17-.04.31-.07.44-.17.65-.62,1.02-1.24,1.02-.14,0-.28,0-.41-.07-5.13-1.33-10.46-3.94-13.66-7.41.21.71.34,1.6.34,2.45v5.41c0,.58-.48.99-1.27.99-.72,0-1.21-.41-1.21-.99v-5.41c0-.85.1-1.67.38-2.45-3.1,3.26-7.64,5.85-13.04,7.38-.17.04-.34.07-.52.07-.58,0-1.03-.34-1.21-.92-.07-.2-.1-.37-.1-.51,0-.54.31-.92.83-1.05,4.99-1.29,8.95-3.16,11.91-5.68h-11.56c-.52,0-.89-.41-.89-1.05s.38-1.05.89-1.05h13.32v-2.38h-10.01c-.55,0-.86-.44-.86-1.05s.31-1.02.86-1.02h10.01v-2.35h-11.97c-.55,0-.86-.41-.86-1.05,0-.61.31-1.02.86-1.02h7.67c-.45-1.26-1-2.48-1.69-3.64h-7.33ZM193.77,9.14c.65,1.16,1.14,2.38,1.58,3.64h5.85c.69-1.16,1.27-2.38,1.75-3.64h-9.19Z" style="fill:#231815;"/><path d="M228.81,8.25c.58,0,.89.44.89,1.16,0,.65-.31,1.12-.89,1.12h-2.3c.83,2.28,1.86,4.25,3.13,5.85.21.27.34.61.34.92s-.14.61-.38.85c-.24.17-.48.27-.72.27-.34,0-.69-.21-.93-.61-.72-1.12-1.48-2.92-2.07-4.96.28,2.07.48,4.25.48,5.71v13.56c0,.65-.45,1.02-1.24,1.02s-1.2-.38-1.2-1.02v-11.22c0-1.7.21-4.45.52-7.07-.83,3.3-2.44,7.24-3.82,9.25-.31.48-.69.68-1.07.68-.24,0-.52-.1-.76-.31-.28-.24-.45-.58-.45-.99,0-.27.07-.54.28-.82,1.93-2.69,4.06-7.07,4.96-11.12h-3.51c-.62,0-.93-.48-.93-1.12,0-.68.31-1.16.93-1.16h3.82V2.44c0-.65.45-1.02,1.24-1.02s1.24.37,1.24,1.02v5.81h2.44ZM238.31,7.54V2.37c0-.61.48-.92,1.24-.92s1.24.31,1.24.92v5.17h7.43c.65,0,1,.44,1,1.16s-.34,1.22-1,1.22h-7.43v5.37h8.67c.62,0,.96.41.96,1.12s-.34,1.19-.96,1.19h-7.88c2.34,4.39,5.82,7.51,8.77,9.62.38.27.55.71.55,1.12,0,.31-.07.58-.24.78-.28.37-.65.54-1.07.54-.28,0-.55-.1-.83-.27-3.2-2.24-6.61-6.26-8.4-10.1.21.95.45,2.52.45,3.54v9.38c0,.61-.48.95-1.24.95s-1.24-.34-1.24-.95v-9.35c0-1.02.14-2.52.34-3.54-1.79,3.74-4.89,7.68-8.43,10.2-.31.24-.65.37-.96.37-.34,0-.69-.17-.96-.51-.17-.24-.28-.51-.28-.82,0-.41.21-.85.65-1.16,3.27-2.18,6.74-5.81,8.74-9.83h-5.78c-.58,0-.96-.48-.96-1.19s.38-1.12.96-1.12h6.64v-5.37h-4.68c-.52,1.26-1.14,2.45-1.75,3.54-.24.44-.62.61-1,.61-.27,0-.55-.07-.83-.24-.31-.17-.48-.51-.48-.88,0-.24.07-.51.24-.78,1.51-2.35,2.82-5.68,3.37-8.5.14-.58.48-.92,1.1-.92.07,0,.17,0,.24.03.65.07,1.07.51,1.07,1.02,0,.07,0,.14-.04.24-.24,1.16-.58,2.35-1,3.5h3.75Z" style="fill:#231815;"/><path d="M256.62,10.39c-.62,0-.96-.54-.96-1.26s.34-1.22.96-1.22h17.24c-.03-1.56-.07-3.26-.07-5.03,0-.65.55-1.05,1.31-1.05s1.38.41,1.38,1.05c0,1.8.03,3.47.07,5.03h9.02c.65,0,1,.51,1,1.22s-.34,1.26-1,1.26h-8.95c.21,3.77.55,6.8,1.1,9.38,1,4.39,2.65,7.65,4.2,9.18.31.27.58.44.83.44.28,0,.55-.2.79-.68.34-.71.69-2.04.86-3.54.1-.71.55-1.05,1.2-1.05h.21c.69.07,1.17.48,1.17,1.16v.14c-.21,1.84-.83,4.01-1.65,5.41-.62,1.02-1.51,1.56-2.48,1.56-.79,0-1.62-.34-2.44-1.09-2.2-1.94-4.03-5.58-5.16-10.51-.62-2.82-1.03-6.22-1.27-10.4h-17.34ZM257.86,17.84c-.58,0-.93-.51-.93-1.22s.34-1.19.93-1.19h13.83c.62,0,.96.51.96,1.19,0,.71-.34,1.22-.96,1.22h-5.68v8.94c2.24-.48,4.4-.95,6.43-1.5.14-.03.27-.07.41-.07.52,0,.86.34,1,.88.03.14.03.24.03.37,0,.58-.34,1.05-1,1.22-4.89,1.29-10.56,2.45-15.62,3.2h-.24c-.62,0-1.1-.38-1.21-1.12-.03-.13-.03-.24-.03-.34,0-.58.34-.98.89-1.05,2.13-.31,4.37-.68,6.64-1.09v-9.45h-5.47ZM283.7,5.19c.21.24.31.51.31.78,0,.31-.14.58-.38.78-.31.27-.62.41-.93.41-.34,0-.69-.13-.93-.44-.86-.92-1.89-1.8-2.89-2.52-.31-.24-.48-.54-.48-.85s.14-.61.45-.85c.24-.21.52-.31.83-.31.28,0,.55.1.83.27,1.03.68,2.38,1.8,3.2,2.72Z" style="fill:#231815;"/><path d="M307.34,1.52c.76,0,1.55.27,2,.78,3.51,4.45,8.33,7.82,13.49,10.2.55.27.83.75.83,1.26,0,.2-.03.41-.14.61-.24.54-.65.85-1.17.85-.28,0-.58-.07-.89-.24-5.37-2.62-10.29-6.19-13.66-10.51-.17-.17-.31-.27-.45-.27s-.28.1-.41.24c-3.06,4.01-8.19,8.16-13.83,10.78-.21.1-.38.14-.58.14-.48,0-.93-.27-1.24-.82-.1-.2-.17-.41-.17-.61,0-.51.34-1.02.86-1.26,5.37-2.55,9.94-5.92,13.39-10.37.45-.51,1.2-.78,2-.78ZM305.59,21.17c-1.27,2.72-2.58,5.4-4.23,7.92,4.37-.27,8.74-.64,13.08-1.26-1.07-1.26-2.2-2.48-3.27-3.54-.21-.2-.31-.48-.31-.71,0-.34.17-.65.48-.85.31-.24.62-.34.93-.34.34,0,.69.1.93.38,2.48,2.35,5.3,5.64,7.16,8.23.17.21.24.48.24.71,0,.41-.21.78-.55,1.05-.28.21-.62.31-.89.31-.41,0-.79-.17-1.03-.51-.55-.82-1.21-1.7-1.89-2.58-6.81,1.05-14.69,1.7-21.95,2.11h-.07c-.69,0-1.27-.48-1.31-1.29v-.1c0-.78.38-1.26,1.1-1.29,1.45-.03,2.92-.1,4.37-.17,1.65-2.55,3.06-5.24,4.16-8.06h-9.12c-.62,0-1-.51-1-1.22s.38-1.26,1-1.26h27.87c.65,0,1,.51,1,1.22s-.34,1.26-1,1.26h-15.69ZM314.43,12.16c.62,0,.96.58.96,1.26s-.34,1.26-.96,1.26h-14.14c-.62,0-.96-.58-.96-1.26s.34-1.26.96-1.26h14.14Z" style="fill:#231815;"/><path d="M333.19,22.56c0-1.12.14-2.35.21-3.4-1.17,1.16-2.41,2.28-3.72,3.2-.31.2-.58.31-.89.31-.38,0-.72-.17-1-.54-.17-.27-.28-.58-.28-.85,0-.37.17-.71.58-.95,4.03-2.82,7.47-6.36,9.43-9.93.07-.14.1-.27.1-.37,0-.27-.17-.44-.52-.44h-7.85c-.65,0-1-.48-1-1.19s.34-1.16,1-1.16h3.92V2.51c0-.58.52-.95,1.31-.95s1.31.34,1.31.95v4.72h2.55c1.34,0,2.2.82,2.2,1.94,0,.38-.1.78-.31,1.22-.89,1.9-2.2,3.81-3.75,5.64,1.45,1.67,3.03,3.03,4.54,4.01.38.24.55.61.55.99,0,.24-.07.51-.24.75-.31.37-.65.58-1.07.58-.24,0-.52-.1-.76-.31-1.2-.88-2.68-2.24-3.85-3.71.07,1.16.14,2.31.14,3.5v10.33c0,.51-.52.95-1.31.95-.69,0-1.31-.31-1.31-.95v-9.62ZM341.9,14.41c-.62,0-1.03-.54-1.03-1.26s.41-1.22,1.03-1.22h5.78V2.61c0-.68.52-1.05,1.34-1.05s1.34.38,1.34,1.05v9.31h6.95c.62,0,.96.51.96,1.22s-.34,1.26-.96,1.26h-6.95v14.65h8.16c.62,0,.96.51.96,1.22s-.34,1.29-.96,1.29h-18.37c-.62,0-.96-.54-.96-1.26,0-.75.34-1.26.96-1.26h7.54v-14.65h-5.78Z" style="fill:#231815;"/><path d="M105.53,43.48c0-.5.37-.74.88-.74.46,0,.81.23.81.74v12.77c0,.49-.35.74-.81.74-.51,0-.88-.25-.88-.74v-5.96h-7.48v5.96c0,.49-.37.74-.84.74s-.84-.25-.84-.74v-12.77c0-.5.35-.74.84-.74s.84.23.84.74v5.24h7.48v-5.24Z" style="fill:#231815;"/><path d="M111.53,43.48c0-.5.35-.74.82-.74s.86.23.86.74v12.77c0,.49-.37.74-.86.74s-.82-.25-.82-.74v-12.77Z" style="fill:#231815;"/><path d="M128.25,55.93c.03.11.05.2.05.31,0,.34-.23.61-.58.7-.12.04-.26.05-.39.05-.3,0-.56-.14-.68-.47l-.44-1.15c-1.26-3.51-1.75-4.79-3.51-4.79h-3.23v5.65c0,.5-.33.76-.81.76s-.84-.25-.84-.77v-11.42c0-1.39.54-1.95,1.79-1.95h4.11c2.54,0,3.95,1.39,3.95,3.6,0,2.07-1.14,3.15-2.77,3.51,1.05.32,1.61,1.53,2.91,4.9l.44,1.06ZM123.51,49.1c1.49,0,2.47-.95,2.47-2.39,0-1.53-.81-2.36-2.37-2.36h-3.56c-.37,0-.58.2-.58.63v4.12h4.04Z" style="fill:#231815;"/><path d="M131.78,56.48c-.12.36-.39.5-.68.5-.12,0-.23-.02-.35-.05-.35-.09-.61-.4-.61-.74,0-.11.02-.2.05-.31l4.77-12.3c.23-.61.67-.85,1.21-.85s1.02.23,1.25.85l4.77,12.33c.05.11.07.2.07.31,0,.36-.28.63-.63.72-.11.04-.21.05-.32.05-.32,0-.6-.16-.72-.5l-1.39-3.73h-6.07l-1.35,3.71ZM138.67,51.26l-1.95-5.24c-.19-.52-.39-1.1-.54-1.71-.16.61-.33,1.19-.54,1.73l-1.98,5.22h5.02Z" style="fill:#231815;"/><path d="M152.67,43.11c.16-.27.39-.38.63-.38.16,0,.32.05.47.14.26.14.47.41.47.72,0,.13-.04.27-.12.4l-4.63,7.13v5.13c0,.49-.35.74-.82.74-.51,0-.84-.25-.84-.74v-5.13l-4.67-7.17c-.07-.13-.1-.23-.1-.36,0-.31.23-.58.51-.74.16-.07.32-.13.47-.13.23,0,.46.11.63.38l4,6.41,4-6.41Z" style="fill:#231815;"/><path d="M156.5,56.48c-.12.36-.39.5-.68.5-.12,0-.23-.02-.35-.05-.35-.09-.61-.4-.61-.74,0-.11.02-.2.05-.31l4.77-12.3c.23-.61.67-.85,1.21-.85s1.02.23,1.25.85l4.77,12.33c.05.11.07.2.07.31,0,.36-.28.63-.63.72-.11.04-.21.05-.32.05-.32,0-.6-.16-.72-.5l-1.39-3.73h-6.07l-1.35,3.71ZM163.39,51.26l-1.95-5.24c-.19-.52-.39-1.1-.54-1.71-.16.61-.33,1.19-.54,1.73l-1.98,5.22h5.02Z" style="fill:#231815;"/><path d="M177.62,56.16c-.25.61-.56.83-1.12.83s-.88-.22-1.12-.85l-2.65-6.82c-.51-1.3-1.35-3.91-1.68-5.02.05,1.17.26,4.43.26,6.97v5c0,.49-.33.72-.82.72s-.81-.23-.81-.72v-12.46c0-.65.46-1.06,1.12-1.06.77,0,1.14.29,1.4.95l3.23,8.32c.35.88.93,2.58,1.09,3.35.18-.79.7-2.36,1.11-3.38l3.18-8.25c.28-.72.68-.99,1.46-.99.65,0,1.11.41,1.11,1.06v12.46c0,.49-.35.72-.81.72s-.83-.23-.83-.72v-4.99c0-2.56.21-5.78.28-7-.33,1.15-1.19,3.73-1.67,4.95l-2.72,6.93Z" style="fill:#231815;"/><path d="M187.73,56.48c-.12.36-.39.5-.68.5-.12,0-.23-.02-.35-.05-.35-.09-.61-.4-.61-.74,0-.11.02-.2.05-.31l4.77-12.3c.23-.61.67-.85,1.21-.85s1.02.23,1.25.85l4.77,12.33c.05.11.07.2.07.31,0,.36-.28.63-.63.72-.1.04-.21.05-.32.05-.32,0-.6-.16-.72-.5l-1.39-3.73h-6.07l-1.35,3.71ZM194.62,51.26l-1.95-5.24c-.19-.52-.39-1.1-.54-1.71-.16.61-.33,1.19-.54,1.73l-1.98,5.22h5.02Z" style="fill:#231815;"/><path d="M206.55,43.48c0-.5.35-.74.83-.74s.86.23.86.74v12.77c0,.49-.37.74-.86.74s-.83-.25-.83-.74v-12.77Z" style="fill:#231815;"/><path d="M221.91,43.48c0-.5.35-.74.84-.74s.82.23.82.74v12.37c0,.7-.35,1.13-1.05,1.13-.75,0-1.04-.31-1.47-1.03l-4.65-7.72c-.7-1.15-1.58-2.92-1.98-3.82.11,1.15.25,3.66.25,6.3v5.53c0,.49-.35.74-.82.74s-.84-.25-.84-.74v-12.42c0-.67.42-1.08,1.11-1.08.79,0,1.09.32,1.42.86l4.42,7.36c.81,1.35,1.79,3.28,2.25,4.29-.11-1.12-.28-3.73-.28-6.32v-5.46Z" style="fill:#231815;"/><path d="M227.89,44.8c0-1.39.54-1.95,1.79-1.95h3.12c3.88,0,6.16,2.52,6.16,6.86s-2.32,7.17-6.16,7.17h-3.12c-1.25,0-1.79-.56-1.79-1.93v-10.15ZM229.55,54.7c0,.41.21.61.56.61h2.6c2.84,0,4.51-2.07,4.51-5.58s-1.56-5.33-4.46-5.33h-2.63c-.33,0-.58.22-.58.59v9.71Z" style="fill:#231815;"/><path d="M243.03,43.48c0-.5.35-.74.86-.74.46,0,.82.23.82.74v8.17c0,2.65,1.26,3.96,3.63,3.96s3.68-1.33,3.68-3.98v-8.16c0-.5.35-.74.84-.74s.84.23.84.74v8.23c0,3.56-1.88,5.47-5.35,5.47s-5.33-1.85-5.33-5.47v-8.23Z" style="fill:#231815;"/><path d="M262.98,48.94c2.74.59,4.23,1.55,4.23,4.16,0,2.32-1.74,4.07-4.88,4.07-4,0-4.83-2.12-5.25-3.58-.02-.09-.04-.16-.04-.23,0-.4.3-.67.67-.76.11-.02.19-.04.3-.04.33,0,.67.16.77.54.32,1.21.89,2.56,3.46,2.56,2,0,3.25-.99,3.25-2.54s-.79-2.12-2.86-2.56l-1.4-.31c-2.63-.56-3.83-1.58-3.83-3.94,0-1.89,1.37-3.73,4.67-3.73s4.25,1.73,4.63,3.02c.04.09.05.18.05.27,0,.38-.3.65-.65.72-.09.02-.19.04-.3.04-.32,0-.63-.14-.77-.52-.28-1.03-1.02-2.03-2.96-2.03s-2.97,1.04-2.97,2.23c0,1.3.61,1.96,2.58,2.36l1.3.27Z" style="fill:#231815;"/><path d="M269.75,44.44c-.44,0-.68-.36-.68-.77s.25-.81.67-.81h9.67c.42,0,.67.38.67.81s-.26.77-.67.77h-3.98v11.81c0,.49-.37.74-.84.74s-.84-.25-.84-.74v-11.81h-3.98Z" style="fill:#231815;"/><path d="M293,55.93c.04.11.05.2.05.31,0,.34-.23.61-.58.7-.12.04-.26.05-.39.05-.3,0-.56-.14-.68-.47l-.44-1.15c-1.26-3.51-1.75-4.79-3.51-4.79h-3.23v5.65c0,.5-.33.76-.81.76s-.84-.25-.84-.77v-11.42c0-1.39.54-1.95,1.79-1.95h4.11c2.54,0,3.95,1.39,3.95,3.6,0,2.07-1.14,3.15-2.77,3.51,1.05.32,1.61,1.53,2.91,4.9l.44,1.06ZM288.26,49.1c1.49,0,2.47-.95,2.47-2.39,0-1.53-.81-2.36-2.37-2.36h-3.56c-.37,0-.58.2-.58.63v4.12h4.04Z" style="fill:#231815;"/><path d="M304.51,43.11c.16-.27.39-.38.63-.38.16,0,.32.05.47.14.26.14.47.41.47.72,0,.13-.04.27-.12.4l-4.63,7.13v5.13c0,.49-.35.74-.82.74-.51,0-.84-.25-.84-.74v-5.13l-4.67-7.17c-.07-.13-.11-.23-.11-.36,0-.31.23-.58.51-.74.16-.07.32-.13.47-.13.23,0,.46.11.63.38l4,6.41,4-6.41Z" style="fill:#231815;"/><path d="M311.1,55.73c0,.76-.53,1.26-1.21,1.26s-1.21-.5-1.21-1.26.53-1.22,1.21-1.22,1.21.5,1.21,1.22Z" style="fill:#231815;"/><path d="M315.19,43.48c0-.5.35-.74.83-.74s.86.23.86.74v12.77c0,.49-.37.74-.86.74s-.83-.25-.83-.74v-12.77Z" style="fill:#231815;"/><path d="M330.3,56.27c0,.49-.35.72-.81.72s-.81-.23-.81-.72v-5.76c0-1.53-.6-2.39-1.91-2.39-.95,0-1.74.43-2.33,1.28-.44.61-.61,1.13-.61,1.84v5.04c0,.49-.33.72-.79.72-.49,0-.81-.23-.81-.72v-8.77c0-.47.33-.7.82-.7.46,0,.77.23.77.7v.49c0,.23-.05.41-.07.76.61-1.28,1.67-2.09,3.33-2.09,2.09,0,3.21,1.3,3.21,3.51v6.1Z" style="fill:#231815;"/><path d="M338.1,46.63c2.32,0,3.26,1.31,3.7,2.45.04.09.05.2.05.27,0,.34-.26.56-.53.67-.12.04-.26.05-.39.05-.26,0-.49-.11-.61-.41-.33-.92-.86-1.62-2.19-1.62-1.83,0-2.83,1.58-2.83,3.87s.98,3.85,2.84,3.85c1.37,0,1.91-.68,2.25-1.66.12-.34.37-.49.65-.49.12,0,.25.02.37.07.32.07.56.29.56.61,0,.11-.02.2-.07.32-.47,1.24-1.4,2.54-3.79,2.54-2.84,0-4.44-2.14-4.44-5.24s1.54-5.29,4.42-5.29Z" style="fill:#231815;"/><polygon points="30.68 34.65 0 17.32 30.68 0 60.74 17.32 30.68 34.65" style="fill:none; stroke:#4c8fcd; stroke-miterlimit:10; stroke-width:3px;"/><line x1="23.63" y1="4.29" x2="23.63" y2="30.21" style="fill:none; stroke:#4c8fcd; stroke-miterlimit:10; stroke-width:4px;"/><line x1="38.54" y1="4.29" x2="38.54" y2="30.21" style="fill:none; stroke:#4c8fcd; stroke-miterlimit:10; stroke-width:4px;"/><line x1="39.09" y1="17.25" x2="23.07" y2="17.25" style="fill:none; stroke:#4c8fcd; stroke-miterlimit:10; stroke-width:4px;"/></svg>
