<?xml version="1.0" encoding="UTF-8"?><svg id="a" xmlns="http://www.w3.org/2000/svg" viewBox="0 0 145.67 149.48"><path d="M128.84,82.82s-19.19,41.78-56.89,56.3C38.34,151.94,1.17,158.14.83,125.6c-.16-25.86-1.62-91.91,26.07-100.88C62.66,13.06,78.48-5.51,113.68,12.34c0,0,39.5,23.84,15.15,70.48Z" style="fill:#ca9575;"/><path d="M128.84,82.82s-11.23,36.66-56.95,56.88c-9.77,4.31-21.77,7.13-31.06,9.06,17.85-7.94,20.02-10.82,34.82-21.56,14.73-10.65-16.75-10.45,10.36-39.38,9.27-9.84-21.41-19.88-29.17-21.2C10.75,58.49,11.88,45.82,12.87,35.76c1.83-4.11,3.95.85,6.37-2.62l5.72-6.7c.68-.64,1.36-1.24,1.94-1.72,6.15-4.86,12.06-8.93,17.9-12.28,19.67,3.35,75.82,12.95,76.94,13.41.69.2,8.06,13.31,15.01,25.66.42,9.01-1.66,19.35-7.92,31.3Z" style="fill:#ca9575;"/><path d="M99.4,123.81c-.06-3.37,25.78-24.59,18.75-33.71-7.73-10.12-30.53,18.98-31.84,20.56-1.48,1.47-.62-9.01,3.82-16.35,5.12-8.33,6.44-18.86.48-25.58-5.35-5.96-23.24-6.1-33.92-6.74,9.47-3.53,27.11-2.64,35.78-14.39,11.6-15.7,24.63-21.85,36.08-23.16,51.36,39.89-29.15,99.37-29.15,99.37Z" style="fill:#302d2b;"/><path d="M56.68,61.99s33.59-.83,50.65-23.59c3.55-4.88,12.37-12.58,22.76-11.97,0,0-4.17-29.07-54.35-26.23-19.95,1.13-43.34,12.58-47.88,15.97-50.67,37.83,2.43,43.59,28.81,45.83Z" style="fill:#21201f;"/><path d="M33.2,134.33c15.3,0,53.48-36.59,56.92-40.02,9.88-9.88-4.19,34.04-43.62,51.84,0,0-42.08,13.25-46.51-13.72,0,0,.67-47.3,1.32-41.84,1.68,14.01-6.97,43.74,31.88,43.74Z" style="fill:#302d2b;"/></svg>