<?xml version="1.0" encoding="UTF-8"?><svg id="a" xmlns="http://www.w3.org/2000/svg" viewBox="0 0 581.83 1045"><path d="M156.38,433.01c9.37-18.6,20.12-123.88,20.12-123.88,0,0-6.78-63.49,3.09-119.31,9.88-55.83,53.43-42.28,53.43-42.28,30.6,8.93,4.14,107.24-1.12,140.84-9.79,62.41-44.14,135.48-51.75,152.47.4,6.37,1.56,16.1.3,22.28-7.76,37.93,14.09,34.8-1.62,36.77-8.71,1.08-26.12-24.99-23.43-44.34,0-9.41-2.61-19.99.98-22.54Z" style="fill:#ca9575;"/><path d="M214.22,137.2c-47.7,2.07-58.91,149.27-48.76,191.5,0,0,22.24,24.96,60.04,7.5,0,0,69.08-202.47-11.29-199Z" style="fill:#d5d5d5;"/><path d="M269.89,828.96s21.65,19.91,5.63,33.05c-16.01,13.14-31.44,19.1-39.65,30.11-8.22,11.01-47.03,25.9-64.08,9.18,0,0-7.45-17.39,20.72-36.42,28.2-19.05,30.83-31.53,37.63-39.71,6.8-8.19,39.76,3.78,39.76,3.78Z" style="fill:#11181b;"/><path d="M174.6,428.84s-12.62,43.44,12,193.19c21.15,128.68,29.04,206.25,27.51,217.74,0,0,28.99,23.53,60.28,2.1,21.91-15.01-3.53-314.39-3.53-314.39,0,0-77.09-62.89-96.27-98.64Z" style="fill:#888;"/><path d="M351.71,884.33s5.58,27.17-12.36,44.93c-17.93,17.77-32.31,35.53-51.55,20.72-19.24-14.8,10.98-65.55,12.85-69.78,1.9-4.22,51.06,4.14,51.06,4.14Z" style="fill:#11181b;"/><path d="M368.64,716.12c2.1,47,1.47,116.76-9.6,171.31-2.8,13.81-63.88,9.71-65.79,0-10.06-51.51-24.68-259.08-28.98-280.09,11.56-.33,0-.01,0-.01-2.39-11.66-7.28-56.72-16.76-71.35-10.19-15.73-71.34-89.24-72.92-104.01.63.85,191.05,3.9,195.03,12.63,22.39,49.24-1.46,260.79-.98,271.53Z" style="fill:#0c2936;"/><path d="M368.64,716.12c2.1,47,1.47,116.76-9.6,171.31-2.8,13.81-63.88,9.71-65.79,0-10.06-51.51-24.68-259.08-28.98-280.09,11.56-.33,0-.01,0-.01-2.39-11.66-7.28-56.72-16.76-71.35-10.19-15.73-71.34-89.24-72.92-104.01.63.85,191.05,3.9,195.03,12.63,22.39,49.24-1.46,260.79-.98,271.53Z" style="fill:#888;"/><path d="M322.3,153.3c9.14,3.62,18.65,9.59,34.27,18.32,20.76,11.58,42.34,28.43,45.36,31.67,4.09,4.36,18.62,15.22-15.45,74.23,0,0-53.68,65.66-30.05,130.79l13.18,36.29s-45.12,62.49-140.67,24.67c-19.37-7.69-54.58-21.58-54.36-40.41,0,0,13.76-66.36,3.33-132.81-9.02-57.46,1.71-151.12,45.13-159.88,0,0,25.86-11.88,99.24,17.15Z" style="fill:#e9e9e9;"/><path d="M340.76,99.41s-30.93,28.9-15.85,53.85c8.43,13.95-22.74,39.35-65.8,30.3,0,0-18.66-7.1-15.45-13.03,7.26-13.34,2.43-22.29-2.38-34.09-4.87-11.73,99.48-37.02,99.48-37.02Z" style="fill:#ca9575;"/><path d="M324.91,153.26c1.03,1.7,1.49,3.5,1.31,5.45-13.5-17.07-44.55-22.96-44.55-22.96l49.19-33.86c1.76-.51,3.31-.89,4.66-1.23l.5,3.8c-8.03,9.32-22.39,30.17-11.1,48.79Z" style="fill:#ca9575;"/><path d="M353.35,82.46s-19.11,41.6-56.65,56.06c-33.45,12.76-70.47,18.94-70.81-13.46-.16-25.75-1.62-91.51,25.96-100.44,35.61-11.62,51.36-30.1,86.41-12.34,0,0,39.33,23.74,15.09,70.18Z" style="fill:#ca9575;"/><path d="M353.35,82.46s-11.18,36.5-56.7,56.63c-9.73,4.29-21.68,7.1-30.92,9.02,17.77-7.9,19.93-10.77,34.67-21.47,14.67-10.61-16.68-10.4,10.32-39.21,9.23-9.8-21.32-19.79-29.05-21.11-45.89-8.09-44.76-20.71-43.78-30.72,1.82-4.09,3.94.84,6.35-2.61l5.69-6.67c.68-.64,1.36-1.23,1.93-1.71,6.12-4.84,12-8.9,17.83-12.23,19.58,3.33,75.49,12.9,76.61,13.35.69.2,8.02,13.25,14.95,25.55.42,8.97-1.66,19.27-7.89,31.16Z" style="fill:#ca9575;"/><path d="M324.04,123.27c-.06-3.36,25.67-24.48,18.67-33.56-7.69-10.07-30.39,18.9-31.7,20.47-1.48,1.46-.61-8.97,3.8-16.28,5.1-8.29,6.41-18.78.48-25.47-5.33-5.94-23.14-6.07-33.78-6.71,9.43-3.51,26.99-2.63,35.62-14.32,11.55-15.63,24.52-21.75,35.93-23.06,51.14,39.72-29.02,98.93-29.02,98.93Z" style="fill:#302d2b;"/><path d="M281.51,61.72s33.44-.82,50.43-23.49c3.54-4.86,12.31-12.52,22.66-11.92,0,0-4.15-28.94-54.11-26.12-19.86,1.13-43.15,12.53-47.67,15.9-50.45,37.66,2.42,43.4,28.69,45.63Z" style="fill:#21201f;"/><path d="M321.43,144.53s-1.73,33.05-72.01,34.12l8.21,27.12s57.34,10.32,81.7-43.81l-17.9-17.44Z" style="fill:#f7f7f7;"/><path d="M249.42,178.65s-2.84-6.33-1.1-19.07c.39-2.78.34-6.22-.78-8.69l-.75-2.65-7.02-1.5s-25.82,23.69-19.26,45.67l28.9-13.76Z" style="fill:#f7f7f7;"/><path d="M274.39,841.87c-8.58,5.87-16.95,8.29-24.64,8.83-.73-30.05-3.1-108.94-8.37-156.34-6.62-59.44-25.97-197.48-25.97-197.48l57.72,59.26c5.71,75.23,19,273.59,1.26,285.74Z" style="fill:#717071;"/><path d="M258.13,133.75c15.23,0,53.24-36.43,56.67-39.85,9.83-9.84-4.18,33.9-43.43,51.61,0,0-41.89,13.2-46.3-13.66,0,0,.67-47.1,1.32-41.66,1.67,13.95-6.94,43.55,31.74,43.55Z" style="fill:#302d2b;"/><path d="M401.94,203.28c4.09,4.36,18.62,15.22-15.45,74.23,0,0-53.68,65.66-30.05,130.79l13.18,36.29s-17.67,24.46-54.3,33.51c-29.12-80.18,3.46-203.69,10.49-249.26,4.98-32.3,28.08-45.33,42.22-50.35,16.62,10.5,31.44,22.15,33.91,24.79Z" style="fill:#d7d7d7;"/><path d="M376.61,388.26s-5.71,2.5-14.57,6.32c.01-1.03.02-1.66.02-1.66,0,0-18.38-66.31-17.24-126.72,1.16-60.43,40.65-46.62,40.65-46.62,34.96,5.3,33.49,107.56,33.52,143.83,0,3.05-.11,6.14-.21,9.22-.11-4.64-.26-9.27-.76-13.81-24.68,16.16-41.41,29.44-41.41,29.44Z" style="fill:#ca9575;"/><path d="M149.99,469.5c30.94.13,40.27-15.23,40.27-15.23-13,2.64-22.64-2.4-25.85-5.62-2.65-2.62-.02-9.01,6.36-6.69,6.37,2.33,15.12,1,19.77-.44,13.73-4.19,19.94-2.77,24.41-1.21,12.47,4.32,21.61,2.41,21.61,2.41,17.98-2.39,93.49-34.36,125.48-48.15-.09,5.92-.45,27.76-1.32,52.69-48.19,12.96-92.3,18.81-103.33,21.06-16.34,3.34-24.79,4.18-41.44,12.65-21.73,11.09-43.41,6.66-47.05,5.09-21.1-9.1-24.53-16.59-18.92-16.57Z" style="fill:#ca9575;"/><path d="M419,376.52c0,10.55-1.15,20.82-3.13,30.82,1.52-11.54,2.55-23.2,2.92-34.72.03,1.31.21,2.58.21,3.9Z" style="fill:#ca9575;"/><path d="M376.61,388.26s16.73-13.28,41.41-29.44c.5,4.54.65,9.17.76,13.81-.37,11.52-1.4,23.18-2.92,34.72-1.67,8.38-3.9,16.58-6.79,24.5-15.86,6.01-32.33,11.11-48.35,15.42.87-24.93,1.23-46.77,1.32-52.69,8.86-3.82,14.57-6.32,14.57-6.32Z" style="fill:#ca9575;"/><path d="M379.55,190.33c59.04,1.66,60.76,161.85,48.79,205.69,0,0-28.04,21.03-66.95,1.85,0,0-49.84-209.45,18.16-207.54Z" style="fill:#e9e9e9;"/></svg>