<?xml version="1.0" encoding="UTF-8"?><svg id="a" xmlns="http://www.w3.org/2000/svg" viewBox="0 0 714.19 1039"><path d="M196.31,537.35c-6.02,0-12.04-2.27-16.67-6.84-96.48-95.18-97.54-251.11-2.35-347.59,95.18-96.48,251.12-97.54,347.59-2.35,9.33,9.2,9.43,24.23.23,33.56-9.2,9.33-24.23,9.43-33.56.23-77.85-76.8-203.67-75.95-280.48,1.9-76.8,77.85-75.95,203.67,1.9,280.47,9.33,9.21,9.43,24.23.23,33.56-4.64,4.71-10.77,7.07-16.89,7.07Z" style="fill:#29abe2;"/><path d="M186.13,852.13c-40.13,0-77.92-15.5-106.51-43.71-9.33-9.21-9.43-24.23-.23-33.56,9.21-9.33,24.23-9.43,33.56-.23,19.65,19.38,45.62,30.03,73.19,30.03.24,0,.48,0,.73,0,27.84-.19,53.94-11.21,73.5-31.03,19.55-19.82,30.22-46.07,30.03-73.91-.19-27.84-11.21-53.95-31.03-73.5-9.33-9.21-9.43-24.23-.23-33.56,9.21-9.33,24.23-9.43,33.56-.23,28.85,28.46,44.89,66.45,45.16,106.97.27,40.52-15.25,78.72-43.71,107.57-28.46,28.85-66.45,44.88-106.97,45.16-.35,0-.7,0-1.06,0Z" style="fill:#29abe2;"/><path d="M276.08,633.59c-6.82,0-13.6-2.93-18.29-8.6l-79.25-95.7c-8.36-10.1-6.95-25.05,3.14-33.41,10.09-8.36,25.05-6.96,33.41,3.14l79.25,95.7c8.36,10.1,6.95,25.05-3.14,33.41-4.43,3.67-9.79,5.45-15.12,5.45Z" style="fill:#29abe2;"/><path d="M478.04,562.17c-7.54,0-14.95-3.58-19.55-10.26-7.44-10.79-4.73-25.57,6.06-33.01,43.6-30.08,72.88-75.35,82.44-127.46,9.56-52.11-1.75-104.82-31.83-148.42-30.08-43.6-75.35-72.88-127.46-82.44-52.1-9.56-104.82,1.75-148.42,31.83-10.79,7.45-25.57,4.73-33.01-6.06-7.44-10.79-4.73-25.57,6.06-33.01,54.04-37.29,119.37-51.29,183.94-39.45,64.58,11.85,120.67,48.13,157.96,102.17,37.28,54.04,51.29,119.36,39.45,183.94-11.85,64.58-48.13,120.67-102.17,157.96-4.11,2.84-8.81,4.2-13.46,4.2Z" style="fill:#29abe2;"/><path d="M9.13,438.46C-35.03,246.37,85.33,54.16,277.42,10.01c93.06-21.39,188.87-5.26,269.8,45.41,80.93,50.67,137.27,129.83,158.66,222.88l-46.26,10.63c-18.55-80.7-67.42-149.34-137.59-193.29-70.18-43.95-153.28-57.94-233.97-39.38-80.7,18.55-149.34,67.42-193.29,137.6-43.95,70.18-57.93,153.27-39.38,233.97l-46.26,10.63Z" style="fill:#b5ccda;"/><path d="M512.88,676.13c-8.51,0-16.74-4.59-21-12.64-6.13-11.58-1.71-25.94,9.88-32.07,73.19-38.73,126.92-103.64,151.29-182.77,24.37-79.14,16.46-163.03-22.26-236.22C550.84,61.34,362.88,3.46,211.8,83.41c-11.58,6.13-25.94,1.71-32.08-9.88-6.13-11.58-1.71-25.94,9.88-32.08,174.22-92.18,390.95-25.44,483.14,148.78,92.18,174.22,25.44,390.96-148.78,483.14-3.54,1.87-7.33,2.76-11.08,2.76Z" style="fill:#b5ccda;"/><path d="M234.08,1039c-31.51,0-62.52-8.57-90.18-25.28-40.01-24.17-68.21-62.48-79.41-107.86-3.14-12.72,4.63-25.59,17.35-28.72,12.72-3.14,25.59,4.63,28.72,17.36,8.16,33.08,28.72,60.99,57.87,78.61,29.16,17.61,63.43,22.82,96.51,14.66,33.08-8.16,60.99-28.71,78.61-57.87,17.62-29.16,22.82-63.43,14.66-96.51-3.14-12.73,4.63-25.59,17.35-28.73,12.73-3.14,25.59,4.63,28.73,17.35,11.2,45.38,4.05,92.41-20.12,132.42-24.17,40.01-62.48,68.21-107.86,79.41-14.01,3.46-28.17,5.17-42.24,5.17Z" style="fill:#b5ccda;"/></svg>