<?xml version="1.0" encoding="UTF-8"?><svg id="a" xmlns="http://www.w3.org/2000/svg" viewBox="0 0 1815.03 938"><g style="opacity:.5;"><polygon points="920.95 825.75 919.91 823.66 929 819.11 930.04 821.21 920.95 825.75" style="fill:#b5ccda;"/><polygon points="910.84 845.29 908.74 844.24 916.58 828.57 918.68 829.61 910.84 845.29" style="fill:#b5ccda;"/><polygon points="912.17 817.57 911.13 815.48 934.92 803.58 935.96 805.68 912.17 817.57" style="fill:#b5ccda;"/><polygon points="886.97 867.88 884.87 866.83 903.71 829.17 905.8 830.21 886.97 867.88" style="fill:#b5ccda;"/><polygon points="919.11 801.53 918.07 799.44 925.63 795.65 926.68 797.75 919.11 801.53" style="fill:#b5ccda;"/><polygon points="878.15 860.38 876.05 859.34 883.56 844.32 885.66 845.36 878.15 860.38" style="fill:#b5ccda;"/><polygon points="796.73 847.21 794.63 846.16 798.39 838.66 800.48 839.7 796.73 847.21" style="fill:#b5ccda;"/><polygon points="794.97 825.59 792.87 824.55 819.14 772.01 821.24 773.05 794.97 825.59" style="fill:#b5ccda;"/><polygon points="783.7 848.12 781.61 847.07 789.12 832.06 791.21 833.1 783.7 848.12" style="fill:#b5ccda;"/><polygon points="781.94 826.5 779.85 825.45 817.41 750.33 819.5 751.38 781.94 826.5" style="fill:#b5ccda;"/><polygon points="769.3 826.64 767.21 825.59 808.52 742.97 810.61 744.02 769.3 826.64" style="fill:#b5ccda;"/><polygon points="760.47 819.14 758.38 818.1 803.48 727.89 805.58 728.93 760.47 819.14" style="fill:#b5ccda;"/><polygon points="751.65 811.66 749.55 810.61 790.86 728 792.95 729.05 751.65 811.66" style="fill:#b5ccda;"/><polygon points="742.82 804.16 740.73 803.12 785.82 712.94 787.91 713.98 742.82 804.16" style="fill:#b5ccda;"/><polygon points="800.65 684.75 799.61 682.66 807.18 678.87 808.23 680.96 800.65 684.75" style="fill:#b5ccda;"/><polygon points="730.24 804.19 728.14 803.15 780.85 697.73 782.95 698.77 730.24 804.19" style="fill:#b5ccda;"/><polygon points="821.51 661.75 820.47 659.66 827.98 655.9 829.02 658 821.51 661.75" style="fill:#b5ccda;"/><polygon points="791.37 676.83 790.32 674.73 797.91 670.94 798.95 673.03 791.37 676.83" style="fill:#b5ccda;"/><polygon points="721.41 796.7 719.31 795.66 772 690.28 774.1 691.33 721.41 796.7" style="fill:#b5ccda;"/><polygon points="797.21 661.33 796.17 659.23 818.71 647.97 819.75 650.06 797.21 661.33" style="fill:#b5ccda;"/><polygon points="769.28 675.3 769.01 674.76 767.55 674.03 767.88 673.38 788.63 663.01 789.67 665.1 769.28 675.3" style="fill:#b5ccda;"/><polygon points="761.42 691.54 759.32 690.5 763.16 682.83 765.25 683.88 761.42 691.54" style="fill:#b5ccda;"/><polygon points="708.81 796.75 706.72 795.71 748.03 713.1 750.12 714.14 708.81 796.75" style="fill:#b5ccda;"/><polygon points="756.41 676.42 754.31 675.37 759.5 665 779.35 655.07 780.4 657.17 761.24 666.74 756.41 676.42" style="fill:#b5ccda;"/><polygon points="696.18 796.87 694.08 795.83 739.2 705.6 741.29 706.65 696.18 796.87" style="fill:#b5ccda;"/><polygon points="752.15 659.8 750.05 658.75 751.12 656.62 770.08 647.14 771.12 649.23 752.87 658.36 752.15 659.8" style="fill:#b5ccda;"/><polygon points="743.76 676.57 741.66 675.53 745.47 667.91 747.57 668.95 743.76 676.57" style="fill:#b5ccda;"/><polygon points="655.12 813.87 654.07 811.77 680.03 798.79 734.13 690.6 736.22 691.64 681.78 800.54 655.12 813.87" style="fill:#b5ccda;"/><polygon points="738.73 661.49 736.63 660.44 742.74 648.23 753.16 643.02 754.2 645.12 744.48 649.98 738.73 661.49" style="fill:#b5ccda;"/><polygon points="638.32 809.69 637.28 807.6 671.65 790.41 725.3 683.11 727.4 684.15 673.39 792.15 638.32 809.69" style="fill:#b5ccda;"/><polygon points="729.89 654.01 727.8 652.97 731.77 645.03 733.86 646.08 729.89 654.01" style="fill:#b5ccda;"/><polygon points="636.57 798 635.53 795.9 663.27 782.03 708.96 690.64 711.06 691.68 665.01 783.77 636.57 798" style="fill:#b5ccda;"/><polygon points="721.06 646.53 718.96 645.49 725.98 631.47 726.34 631.29 726.93 632.39 727.89 632.87 721.06 646.53" style="fill:#b5ccda;"/><polygon points="634.83 786.29 633.79 784.2 654.89 773.65 692.64 698.15 694.73 699.19 656.63 775.39 634.83 786.29" style="fill:#b5ccda;"/><polygon points="700.92 661.68 698.82 660.64 706.35 645.59 708.44 646.63 700.92 661.68" style="fill:#b5ccda;"/><polygon points="693.41 676.7 691.31 675.65 695.07 668.15 697.16 669.19 693.41 676.7" style="fill:#b5ccda;"/><polygon points="633.13 774.57 632.08 772.48 646.51 765.27 676.3 705.67 678.4 706.71 648.25 767.01 633.13 774.57" style="fill:#b5ccda;"/><polygon points="699.61 639.14 697.52 638.1 701.3 630.53 703.4 631.58 699.61 639.14" style="fill:#b5ccda;"/><polygon points="688.33 661.7 686.24 660.66 693.75 645.63 695.85 646.67 688.33 661.7" style="fill:#b5ccda;"/><polygon points="677.08 684.21 674.98 683.17 682.49 668.16 684.58 669.21 677.08 684.21" style="fill:#b5ccda;"/><polygon points="631.55 762.79 630.5 760.69 638.13 756.89 652.46 728.22 654.56 729.26 639.87 758.63 631.55 762.79" style="fill:#b5ccda;"/><polygon points="683.26 646.7 681.17 645.65 692.47 623.05 694.56 624.1 683.26 646.7" style="fill:#b5ccda;"/><polygon points="672 669.22 669.91 668.17 677.42 653.16 679.51 654.21 672 669.22" style="fill:#b5ccda;"/><polygon points="660.75 691.73 658.65 690.68 662.4 683.18 664.5 684.22 660.75 691.73" style="fill:#b5ccda;"/><polygon points="631.13 750.43 630.38 749.25 629.57 748.85 632.12 743.76 634.22 744.8 631.48 750.25 631.13 750.43" style="fill:#b5ccda;"/><polygon points="651.92 684.24 649.83 683.19 676.1 630.65 678.19 631.69 651.92 684.24" style="fill:#b5ccda;"/><polygon points="676.81 609.31 674.72 608.27 683.23 591.24 685.33 592.28 676.81 609.31" style="fill:#b5ccda;"/><polygon points="658.01 646.91 655.92 645.86 663.42 630.86 665.52 631.9 658.01 646.91" style="fill:#b5ccda;"/><polygon points="671.33 595.13 669.24 594.09 675.69 581.18 685.4 576.33 686.45 578.42 677.43 582.93 671.33 595.13" style="fill:#b5ccda;"/><polygon points="637.49 662.82 635.39 661.78 654.16 624.25 656.25 625.3 637.49 662.82" style="fill:#b5ccda;"/><polygon points="629.98 677.83 627.89 676.78 631.64 669.28 633.74 670.32 629.98 677.83" style="fill:#b5ccda;"/><polygon points="665.93 580.79 663.84 579.74 667.31 572.8 682.88 565.02 683.92 567.11 669.05 574.55 665.93 580.79" style="fill:#b5ccda;"/><polygon points="628.22 656.22 626.12 655.18 652.4 602.62 654.49 603.66 628.22 656.22" style="fill:#b5ccda;"/><polygon points="616.96 678.74 614.86 677.69 618.62 670.18 620.71 671.23 616.96 678.74" style="fill:#b5ccda;"/><polygon points="660.32 566.34 659.85 565.4 658.68 564.92 658.93 564.42 672.69 557.54 673.73 559.63 660.32 566.34" style="fill:#b5ccda;"/><polygon points="641.46 604.58 639.37 603.54 646.89 588.5 648.98 589.54 641.46 604.58" style="fill:#b5ccda;"/><polygon points="615.19 657.12 613.1 656.07 635.61 611.05 637.71 612.09 615.19 657.12" style="fill:#b5ccda;"/><polygon points="603.92 679.65 601.83 678.61 609.35 663.58 611.44 664.62 603.92 679.65" style="fill:#b5ccda;"/><rect x="997.92" y="275.1" width="3.02" height="2.34" transform="translate(-18.33 474.66) rotate(-26.48)" style="fill:#b5ccda;"/><polygon points="663.54 552.16 662.49 550.07 670.1 546.26 671.14 548.36 663.54 552.16" style="fill:#b5ccda;"/><polygon points="609.67 643.01 607.58 641.97 615.09 626.96 617.18 628 609.67 643.01" style="fill:#b5ccda;"/><polygon points="594.65 673.06 592.56 672.02 596.32 664.49 598.41 665.53 594.65 673.06" style="fill:#b5ccda;"/><polygon points="987.45 271 986.41 268.9 994.66 264.78 995.7 266.88 987.45 271" style="fill:#b5ccda;"/><polygon points="855.56 339.37 853.46 338.33 855.43 334.39 856.59 333.82 857.63 335.91 857.17 336.14 855.56 339.37" style="fill:#b5ccda;"/><polygon points="585.38 666.46 583.28 665.42 590.81 650.38 592.9 651.42 585.38 666.46" style="fill:#b5ccda;"/><polygon points="991.58 255.45 989.48 254.41 993.44 246.49 995.53 247.54 991.58 255.45" style="fill:#b5ccda;"/><polygon points="977.25 263.53 976.21 261.43 984.07 257.5 985.11 259.6 977.25 263.53" style="fill:#b5ccda;"/><polygon points="838.39 348.55 836.3 347.51 847.04 326.02 863.41 317.83 864.45 319.93 848.79 327.76 838.39 348.55" style="fill:#b5ccda;"/><polygon points="658.36 529.61 657.31 527.52 672.36 519.99 673.4 522.08 658.36 529.61" style="fill:#b5ccda;"/><polygon points="576.11 659.87 574.01 658.82 585.29 636.27 587.38 637.31 576.11 659.87" style="fill:#b5ccda;"/><polygon points="967.07 256.05 966.02 253.95 981.19 246.37 981.64 247.28 982.85 247.76 982.67 248.11 982.23 248.47 967.07 256.05" style="fill:#b5ccda;"/><polygon points="899.42 289.87 898.37 287.78 943.41 265.26 944.45 267.36 899.42 289.87" style="fill:#b5ccda;"/><polygon points="829.12 341.96 827.02 340.92 838.67 317.63 868.34 302.8 869.38 304.89 840.41 319.38 829.12 341.96" style="fill:#b5ccda;"/><polygon points="626.79 532.82 626.3 531.83 625.18 531.34 625.39 530.9 625.75 530.72 669.71 508.74 670.75 510.84 626.79 532.82" style="fill:#b5ccda;"/><polygon points="596.87 593.19 594.78 592.14 609.8 562.11 611.89 563.15 596.87 593.19" style="fill:#b5ccda;"/><polygon points="570.59 645.74 568.5 644.7 583.52 614.66 585.61 615.7 570.59 645.74" style="fill:#b5ccda;"/><polygon points="831.68 311.17 831.54 310.89 829.88 310.06 830.28 309.25 972.46 238.16 974.64 233.81 976.73 234.86 974.2 239.91 831.97 311.1 831.89 311.07 831.68 311.17" style="fill:#b5ccda;"/><polygon points="782.3 410.45 780.21 409.41 783.96 401.9 786.05 402.94 782.3 410.45" style="fill:#b5ccda;"/><polygon points="705.62 480.83 704.57 478.74 759.19 451.43 765.12 439.58 767.22 440.62 760.94 453.17 705.62 480.83" style="fill:#b5ccda;"/><polygon points="613.98 533.83 611.88 532.79 617.02 522.51 667.05 497.5 668.09 499.59 618.77 524.26 613.98 533.83" style="fill:#b5ccda;"/><polygon points="606.38 549.03 604.29 547.98 608.06 540.43 610.15 541.48 606.38 549.03" style="fill:#b5ccda;"/><polygon points="587.6 586.58 585.51 585.54 600.52 555.51 602.62 556.55 587.6 586.58" style="fill:#b5ccda;"/><polygon points="561.32 639.14 559.23 638.1 574.25 608.05 576.35 609.1 561.32 639.14" style="fill:#b5ccda;"/><polygon points="868.62 280.13 867.58 278.03 964.43 229.61 964.88 230.51 966.1 230.98 965.92 231.33 965.47 231.7 868.62 280.13" style="fill:#b5ccda;"/><polygon points="707.49 467.32 706.45 465.23 750.81 443.05 773.2 398.27 775.3 399.31 752.56 444.79 707.49 467.32" style="fill:#b5ccda;"/><polygon points="576.84 582.95 574.75 581.91 608.64 514.13 668.93 483.99 669.97 486.09 610.38 515.88 576.84 582.95" style="fill:#b5ccda;"/><polygon points="565.59 605.47 563.5 604.42 567.25 596.92 569.34 597.96 565.59 605.47" style="fill:#b5ccda;"/><polygon points="554.32 628 552.23 626.95 559.74 611.93 561.84 612.97 554.32 628" style="fill:#b5ccda;"/><polygon points="844.32 279.7 843.28 277.61 956.05 221.23 956.56 222.26 957.63 222.77 957.45 223.12 957.09 223.32 844.32 279.7" style="fill:#b5ccda;"/><polygon points="814.91 294.41 814.4 293.38 813.3 292.95 813.47 292.51 828.17 285.17 829.21 287.26 814.91 294.41" style="fill:#b5ccda;"/><polygon points="777.73 369.3 775.63 368.26 779.39 360.76 781.48 361.8 777.73 369.3" style="fill:#b5ccda;"/><polygon points="770.22 384.31 768.13 383.27 771.88 375.77 773.97 376.81 770.22 384.31" style="fill:#b5ccda;"/><polygon points="762.72 399.33 760.62 398.29 764.38 390.78 766.47 391.82 762.72 399.33" style="fill:#b5ccda;"/><polygon points="755.19 414.38 753.09 413.34 756.86 405.81 758.96 406.85 755.19 414.38" style="fill:#b5ccda;"/><polygon points="690.72 463.14 689.68 461.05 704.69 453.54 705.73 455.63 690.72 463.14" style="fill:#b5ccda;"/><polygon points="556.76 597.97 554.67 596.93 600.26 505.75 667.16 472.3 668.2 474.39 602 507.5 556.76 597.97" style="fill:#b5ccda;"/><polygon points="545.49 620.51 543.4 619.47 550.92 604.43 553.01 605.48 545.49 620.51" style="fill:#b5ccda;"/><polygon points="952.12 208.64 950.03 207.59 953.94 199.76 956.04 200.8 952.12 208.64" style="fill:#b5ccda;"/><polygon points="802.81 294 800.72 292.96 805.14 284.11 939.37 216.99 940.42 219.08 806.88 285.85 802.81 294" style="fill:#b5ccda;"/><polygon points="761.4 376.82 759.31 375.78 774.31 345.76 776.41 346.81 761.4 376.82" style="fill:#b5ccda;"/><polygon points="688.95 451.45 687.91 449.35 702.94 441.84 703.98 443.94 688.95 451.45" style="fill:#b5ccda;"/><polygon points="555.44 575.47 553.35 574.43 591.88 497.37 665.4 460.61 666.44 462.71 593.62 499.12 555.44 575.47" style="fill:#b5ccda;"/><polygon points="940.05 206.7 939.33 205.27 938.76 204.99 941.13 200.24 943.23 201.28 940.68 206.38 940.05 206.7" style="fill:#b5ccda;"/><polygon points="790.14 294.2 788.04 293.16 796.76 275.73 930.06 209.07 931.11 211.17 798.5 277.47 790.14 294.2" style="fill:#b5ccda;"/><polygon points="733.73 407.01 731.64 405.97 772.99 323.26 775.09 324.31 733.73 407.01" style="fill:#b5ccda;"/><polygon points="687.19 439.76 686.15 437.66 701.19 430.15 702.23 432.24 687.19 439.76" style="fill:#b5ccda;"/><polygon points="550.37 560.48 548.27 559.43 583.49 488.99 671.13 445.17 672.18 447.27 585.24 490.74 550.37 560.48" style="fill:#b5ccda;"/><polygon points="777.53 294.27 775.44 293.22 788.38 267.35 913.12 204.97 914.17 207.07 790.12 269.09 777.53 294.27" style="fill:#b5ccda;"/><polygon points="720.73 407.87 718.64 406.83 760.41 323.27 762.51 324.32 720.73 407.87" style="fill:#b5ccda;"/><polygon points="685.43 428.07 684.39 425.97 707.09 414.62 708.13 416.71 685.43 428.07" style="fill:#b5ccda;"/><polygon points="537.79 560.49 535.7 559.45 575.12 480.61 654.36 440.98 655.4 443.08 576.86 482.35 537.79 560.49" style="fill:#b5ccda;"/><polygon points="761.19 301.81 759.09 300.77 780 258.96 881.26 208.33 882.31 210.42 781.74 260.71 761.19 301.81" style="fill:#b5ccda;"/><polygon points="532.72 545.49 530.62 544.45 566.73 472.23 708.91 401.14 744.08 330.79 746.18 331.84 710.65 402.89 568.48 473.97 532.72 545.49" style="fill:#b5ccda;"/><polygon points="311.75 774.16 309.66 773.11 320.91 750.6 323.01 751.65 311.75 774.16" style="fill:#b5ccda;"/><polygon points="527.64 530.5 525.55 529.45 558.35 463.85 700.52 392.76 771.61 250.58 856.98 207.9 858.03 209.99 773.36 252.33 702.27 394.5 560.1 465.59 527.64 530.5" style="fill:#b5ccda;"/><polygon points="475.88 614.33 474.84 612.24 482.77 608.27 483.81 610.36 475.88 614.33" style="fill:#b5ccda;"/><polygon points="299.17 774.17 297.08 773.13 327.1 713.08 329.19 714.13 299.17 774.17" style="fill:#b5ccda;"/><polygon points="515.07 530.51 512.97 529.46 549.97 455.47 692.15 384.38 763.23 242.2 855.22 196.21 856.26 198.31 764.98 243.95 693.89 386.12 551.71 457.21 515.07 530.51" style="fill:#b5ccda;"/><polygon points="466.6 606.4 465.55 604.31 479.23 597.47 479.72 598.44 480.85 598.94 480.67 599.29 480.27 599.56 466.6 606.4" style="fill:#b5ccda;"/><polygon points="294.1 759.18 292.01 758.13 322.03 698.08 324.13 699.12 294.1 759.18" style="fill:#b5ccda;"/><polygon points="491.23 553.04 489.13 552 541.59 447.08 683.76 376 754.85 233.82 838.44 192.03 839.48 194.12 756.6 235.57 685.51 377.74 543.33 448.83 491.23 553.04" style="fill:#b5ccda;"/><polygon points="449.74 602.26 448.69 600.17 470.85 589.09 471.9 591.18 449.74 602.26" style="fill:#b5ccda;"/><polygon points="296.53 729.17 294.44 728.13 298.19 720.62 300.28 721.67 296.53 729.17" style="fill:#b5ccda;"/><polygon points="448.03 590.54 446.98 588.45 462.12 580.88 533.21 438.7 675.38 367.61 746.47 225.44 821.67 187.84 822.71 189.94 748.22 227.18 677.13 369.36 534.95 440.45 463.86 582.62 448.03 590.54" style="fill:#b5ccda;"/><polygon points="196.74 822.81 195.7 820.72 241.01 798.06 242.06 800.16 196.74 822.81" style="fill:#b5ccda;"/><polygon points="446.42 578.77 445.38 576.68 453.74 572.5 524.83 430.32 667 359.24 738.09 217.06 804.89 183.66 805.93 185.75 739.83 218.8 668.74 360.98 526.57 432.06 455.48 574.24 446.42 578.77" style="fill:#b5ccda;"/><polygon points="271.37 729.19 269.28 728.15 284.29 698.14 286.38 699.18 271.37 729.19" style="fill:#b5ccda;"/><polygon points="248.79 774.37 246.69 773.32 258.02 750.68 260.11 751.72 248.79 774.37" style="fill:#b5ccda;"/><polygon points="179.97 818.63 178.92 816.54 240.48 785.76 242.73 781.26 244.82 782.3 242.22 787.5 179.97 818.63" style="fill:#b5ccda;"/><polygon points="437.12 570.85 436.07 568.76 445.36 564.12 516.45 421.94 658.62 350.85 729.71 208.68 795.62 175.72 796.66 177.81 731.45 210.42 660.36 352.6 518.19 423.69 447.1 565.86 437.12 570.85" style="fill:#b5ccda;"/><polygon points="170.7 810.69 169.65 808.6 232.09 777.38 279.21 683.14 281.31 684.18 233.84 779.12 170.7 810.69" style="fill:#b5ccda;"/><polygon points="437.25 558.21 436.21 556.12 436.97 555.73 508.06 413.56 650.24 342.47 721.33 200.29 778.85 171.54 779.89 173.63 723.07 202.04 651.98 344.22 509.81 415.3 438.72 557.48 437.25 558.21" style="fill:#b5ccda;"/><polygon points="168.93 799.01 167.89 796.91 223.71 769 294.8 626.82 321.48 613.48 322.53 615.58 296.54 628.57 225.46 770.74 168.93 799.01" style="fill:#b5ccda;"/><polygon points="793.13 154.44 792.09 152.34 814.6 141.09 815.65 143.18 793.13 154.44" style="fill:#b5ccda;"/><polygon points="755.61 173.2 754.56 171.1 777.08 159.85 778.12 161.94 755.61 173.2" style="fill:#b5ccda;"/><polygon points="435.74 538.29 433.65 537.25 499.68 405.18 641.86 334.09 712.95 191.92 739.53 178.62 740.57 180.72 714.69 193.66 643.6 335.83 501.43 406.92 435.74 538.29" style="fill:#b5ccda;"/><polygon points="159.66 791.07 158.62 788.97 215.33 760.62 286.42 618.44 327.25 598.03 328.29 600.12 288.16 620.19 217.07 762.36 159.66 791.07" style="fill:#b5ccda;"/><polygon points="783.86 146.5 782.82 144.41 797.83 136.9 798.87 139 783.86 146.5" style="fill:#b5ccda;"/><polygon points="753.84 161.51 752.8 159.42 767.81 151.91 768.85 154.01 753.84 161.51" style="fill:#b5ccda;"/><polygon points="716.11 180.38 715.07 178.28 722.7 174.46 723.75 176.56 716.11 180.38" style="fill:#b5ccda;"/><polygon points="422.37 539.9 420.27 538.85 491.3 396.8 633.48 325.71 704.57 183.53 705.71 182.96 706.76 185.05 706.31 185.28 635.22 327.45 493.04 398.54 422.37 539.9" style="fill:#b5ccda;"/><polygon points="157.89 779.38 156.85 777.29 206.95 752.24 278.04 610.06 332.99 582.59 334.03 584.68 279.78 611.8 208.69 753.98 157.89 779.38" style="fill:#b5ccda;"/><polygon points="752.08 149.82 751.04 147.73 781.05 132.72 782.09 134.81 752.08 149.82" style="fill:#b5ccda;"/><polygon points="418.06 523.37 415.96 522.33 482.92 388.41 625.09 317.33 696.18 175.15 705.76 170.36 706.81 172.46 697.93 176.9 626.84 319.07 484.67 390.16 418.06 523.37" style="fill:#b5ccda;"/><polygon points="156.13 767.69 155.09 765.6 198.57 743.85 269.65 601.68 308.7 582.16 309.75 584.25 271.4 603.42 200.31 745.6 156.13 767.69" style="fill:#b5ccda;"/><polygon points="742.81 141.88 741.76 139.79 771.78 124.78 772.82 126.88 742.81 141.88" style="fill:#b5ccda;"/><polygon points="405.38 523.58 403.29 522.53 474.54 380.04 616.71 308.95 687.8 166.77 704.14 158.6 705.19 160.7 689.55 168.51 618.46 310.69 476.28 381.78 405.38 523.58" style="fill:#b5ccda;"/><polygon points="154.37 756 153.32 753.9 190.19 735.47 261.28 593.3 374.5 536.69 375.55 538.78 263.02 595.04 191.93 737.22 154.37 756" style="fill:#b5ccda;"/><polygon points="392.09 517.94 391.04 515.84 395.07 513.83 466.16 371.65 608.33 300.57 679.42 158.39 697.56 149.32 698.6 151.42 681.16 160.13 610.08 302.31 467.9 373.4 396.81 515.57 392.09 517.94" style="fill:#b5ccda;"/><polygon points="293.88 567.04 292.83 564.95 375.44 523.64 376.48 525.74 293.88 567.04" style="fill:#b5ccda;"/><polygon points="147.76 746.73 146.72 744.64 181.81 727.09 252.89 584.92 285.31 568.71 286.36 570.8 254.64 586.66 183.55 728.84 147.76 746.73" style="fill:#b5ccda;"/><polygon points="373.89 514.46 372.85 512.37 386.69 505.45 457.78 363.27 599.95 292.18 667.99 156.11 670.08 157.15 601.7 293.93 459.52 365.02 388.43 507.19 373.89 514.46" style="fill:#b5ccda;"/><polygon points="291.22 555.8 290.18 553.7 365.27 516.15 366.32 518.25 291.22 555.8" style="fill:#b5ccda;"/><polygon points="145.12 735.48 144.08 733.39 173.42 718.71 244.51 576.53 275.15 561.22 276.19 563.31 246.26 578.28 175.17 720.46 145.12 735.48" style="fill:#b5ccda;"/><polygon points="348.62 514.53 347.57 512.43 378.31 497.07 449.39 354.89 591.57 283.8 654.79 157.37 656.88 158.42 593.31 285.55 451.14 356.63 380.05 498.81 348.62 514.53" style="fill:#b5ccda;"/><polygon points="281.06 548.3 280.02 546.21 340.06 516.19 341.1 518.28 281.06 548.3" style="fill:#b5ccda;"/><polygon points="142.49 724.22 141.44 722.13 165.04 710.33 236.13 568.15 272.51 549.97 273.55 552.06 237.88 569.9 166.79 712.07 142.49 724.22" style="fill:#b5ccda;"/><polygon points="345.98 503.28 344.94 501.18 369.93 488.69 441.01 346.51 583.19 275.42 645.51 150.79 647.6 151.83 584.93 277.17 442.76 348.25 371.67 490.43 345.98 503.28" style="fill:#b5ccda;"/><polygon points="278.41 537.06 277.36 534.97 329.9 508.7 330.94 510.79 278.41 537.06" style="fill:#b5ccda;"/><polygon points="147.5 709.15 146.45 707.06 156.66 701.95 227.75 559.77 269.86 538.72 270.9 540.81 229.49 561.52 158.41 703.69 147.5 709.15" style="fill:#b5ccda;"/><polygon points="150.43 694.5 148.34 693.45 219.37 551.39 361.54 480.3 432.63 338.13 574.81 267.04 636.23 144.2 638.32 145.25 576.55 268.79 434.38 339.87 363.29 482.05 221.11 553.14 150.43 694.5" style="fill:#b5ccda;"/><polygon points="265.59 518.33 264.55 516.23 353.16 471.92 424.25 329.75 566.42 258.66 623.18 145.15 625.28 146.19 568.17 260.4 426 331.49 354.91 473.67 265.59 518.33" style="fill:#b5ccda;"/><polygon points="145.65 678.91 143.56 677.87 210.99 543.01 257.05 519.98 258.09 522.08 212.73 544.76 145.65 678.91" style="fill:#b5ccda;"/><polygon points="616 139.59 613.91 138.55 628.96 108.45 631.05 109.5 616 139.59" style="fill:#b5ccda;"/><polygon points="140.23 664.62 138.13 663.57 202.61 534.63 344.78 463.54 415.87 321.37 558.05 250.28 610.15 146.07 612.25 147.11 559.79 252.02 417.61 323.11 346.52 465.28 204.35 536.37 140.23 664.62" style="fill:#b5ccda;"/><polygon points="134.74 650.45 132.65 649.4 194.22 526.25 336.4 455.16 407.49 312.98 549.66 241.9 620.42 100.39 622.51 101.43 551.41 243.64 409.23 314.73 338.15 456.91 195.97 527.99 134.74 650.45" style="fill:#b5ccda;"/><rect x="1569.59" y="935.29" width="2.21" height="2.34" transform="translate(-252.78 798.74) rotate(-26.48)" style="fill:#b5ccda;"/><polygon points="343.1 421.85 341.01 420.8 399.11 304.6 541.28 233.51 607.12 101.85 609.21 102.89 543.03 235.26 400.85 306.35 343.1 421.85" style="fill:#b5ccda;"/><polygon points="133.4 627.98 131.3 626.94 185.84 517.87 328.02 446.78 329.17 444.47 331.27 445.51 329.76 448.52 187.59 519.61 133.4 627.98" style="fill:#b5ccda;"/><polygon points="1546.79 937.48 1544.71 936.43 1545.28 935.29 1563.41 926.22 1564.45 928.32 1547.02 937.03 1546.79 937.48" style="fill:#b5ccda;"/><polygon points="338.04 406.84 335.94 405.79 390.73 296.22 532.9 225.14 594.47 102 596.56 103.04 534.64 226.88 392.47 297.96 338.04 406.84" style="fill:#b5ccda;"/><polygon points="249.15 476.26 248.11 474.17 319.64 438.4 319.89 437.89 321.99 438.93 321.38 440.14 249.15 476.26" style="fill:#b5ccda;"/><polygon points="124.58 620.49 122.48 619.45 177.46 509.49 240.6 477.92 241.65 480.01 179.21 511.23 124.58 620.49" style="fill:#b5ccda;"/><polygon points="1535.6 934.72 1533.51 933.68 1536.9 926.91 1554.13 918.29 1555.17 920.38 1538.64 928.65 1535.6 934.72" style="fill:#b5ccda;"/><polygon points="591.54 87.95 589.44 86.91 593.49 78.82 595.58 79.86 591.54 87.95" style="fill:#b5ccda;"/><polygon points="340.47 376.81 338.38 375.77 382.35 287.84 524.52 216.75 585.64 94.51 587.74 95.56 526.26 218.5 384.09 289.59 340.47 376.81" style="fill:#b5ccda;"/><polygon points="329.21 399.34 327.11 398.3 334.63 383.28 336.72 384.32 329.21 399.34" style="fill:#b5ccda;"/><polygon points="254.89 460.82 253.84 458.72 311.26 430.02 323.35 405.83 325.45 406.87 313 431.76 254.89 460.82" style="fill:#b5ccda;"/><polygon points="111.98 620.53 109.89 619.49 169.08 501.1 216.32 477.48 217.37 479.58 170.83 502.85 111.98 620.53" style="fill:#b5ccda;"/><polygon points="1527.4 925.97 1525.31 924.93 1528.51 918.52 1544.85 910.36 1545.89 912.45 1530.26 920.27 1527.4 925.97" style="fill:#b5ccda;"/><polygon points="578.91 88.07 576.81 87.03 584.56 71.52 586.66 72.56 578.91 88.07" style="fill:#b5ccda;"/><polygon points="327.89 376.83 325.8 375.79 373.96 279.46 516.14 208.37 573.04 94.57 575.14 95.61 517.88 210.12 375.71 281.2 327.89 376.83" style="fill:#b5ccda;"/><polygon points="260.63 445.37 259.58 443.28 302.87 421.63 314.52 398.34 316.62 399.38 304.62 423.38 260.63 445.37" style="fill:#b5ccda;"/><polygon points="238.11 456.63 237.07 454.54 244.57 450.79 245.62 452.88 238.11 456.63" style="fill:#b5ccda;"/><polygon points="103.15 613.04 101.06 612 160.7 492.72 207.05 469.55 208.09 471.64 162.44 494.47 103.15 613.04" style="fill:#b5ccda;"/><polygon points="1521.52 912.07 1521.26 911.52 1519.8 910.8 1520.13 910.15 1550.67 894.88 1551.71 896.97 1521.52 912.07" style="fill:#b5ccda;"/><polygon points="566.31 88.12 564.22 87.07 575.68 64.15 577.78 65.19 566.31 88.12" style="fill:#b5ccda;"/><polygon points="228.84 448.7 227.8 446.6 294.5 413.25 365.58 271.08 507.76 199.99 552.95 109.61 555.04 110.66 509.5 201.73 367.33 272.82 296.24 415 228.84 448.7" style="fill:#b5ccda;"/><polygon points="206.33 459.95 205.29 457.86 212.79 454.11 213.83 456.2 206.33 459.95" style="fill:#b5ccda;"/><polygon points="86.67 620.87 84.57 619.83 152.32 484.34 167.65 476.67 168.7 478.77 154.06 486.09 86.67 620.87" style="fill:#b5ccda;"/><polygon points="1513.14 903.68 1512.99 903.37 1511.35 902.56 1511.75 901.76 1563.93 875.67 1564.97 877.77 1513.45 903.6 1513.38 903.57 1513.14 903.68" style="fill:#b5ccda;"/><polygon points="557.48 80.63 555.39 79.58 566.82 56.73 568.91 57.77 557.48 80.63" style="fill:#b5ccda;"/><polygon points="287.42 406.83 286.97 405.74 285.94 405.22 357.2 262.7 499.38 191.61 540.37 109.62 542.46 110.66 501.12 193.35 358.94 264.44 287.84 406.67 287.42 406.83" style="fill:#b5ccda;"/><polygon points="219.57 440.76 218.53 438.66 271.17 412.35 272.21 414.44 219.57 440.76" style="fill:#b5ccda;"/><polygon points="74.24 620.06 73.67 618.98 72.67 618.49 143.94 475.96 158.37 468.75 159.41 470.84 145.68 477.7 74.59 619.88 74.24 620.06" style="fill:#b5ccda;"/><polygon points="1510.17 892.6 1509.13 890.5 1554.66 867.74 1555.7 869.83 1510.17 892.6" style="fill:#b5ccda;"/><polygon points="544.9 80.65 542.8 79.61 554.11 57 556.2 58.04 544.9 80.65" style="fill:#b5ccda;"/><polygon points="431.46 215.61 430.42 213.52 490.99 183.23 527.79 109.64 529.88 110.68 492.74 184.97 431.46 215.61" style="fill:#b5ccda;"/><polygon points="279.13 398.41 278.46 397.3 277.56 396.84 348.82 254.31 422.91 217.27 423.96 219.36 350.57 256.06 279.48 398.24 279.13 398.41" style="fill:#b5ccda;"/><polygon points="210.3 432.82 209.26 430.73 254.32 408.19 255.37 410.29 210.3 432.82" style="fill:#b5ccda;"/><polygon points="195.3 440.33 194.25 438.23 201.75 434.48 202.8 436.57 195.3 440.33" style="fill:#b5ccda;"/><polygon points="49.26 619.97 48.22 617.88 64.47 609.75 135.55 467.58 141.21 464.75 142.25 466.85 137.3 469.32 66.21 611.5 49.26 619.97" style="fill:#b5ccda;"/><polygon points="1679.21 735.05 1677.12 734 1688.38 711.48 1690.47 712.53 1679.21 735.05" style="fill:#b5ccda;"/><polygon points="1516.35 876.93 1515.31 874.84 1567.9 848.54 1568.94 850.64 1516.35 876.93" style="fill:#b5ccda;"/><polygon points="536.07 73.16 533.98 72.12 549.11 41.85 551.21 42.89 536.07 73.16" style="fill:#b5ccda;"/><polygon points="444.71 196.41 443.67 194.32 482.61 174.85 511.46 117.15 513.56 118.19 484.36 176.59 444.71 196.41" style="fill:#b5ccda;"/><polygon points="270.31 390.24 269.51 388.62 269.18 388.46 269.3 388.21 269.27 388.15 269.35 388.11 340.44 245.94 436.16 198.07 437.2 200.17 342.18 247.68 271.09 389.86 270.31 390.24" style="fill:#b5ccda;"/><polygon points="208.54 421.14 207.49 419.04 222.5 411.53 223.54 413.63 208.54 421.14" style="fill:#b5ccda;"/><polygon points="186.02 432.39 184.98 430.29 199.99 422.79 201.03 424.89 186.02 432.39" style="fill:#b5ccda;"/><polygon points="155.98 447.41 154.94 445.32 162.46 441.56 163.5 443.65 155.98 447.41" style="fill:#b5ccda;"/><polygon points="39.99 612.04 38.94 609.94 56.09 601.37 127.18 459.2 139.8 452.89 140.84 454.98 128.92 460.94 57.83 603.12 39.99 612.04" style="fill:#b5ccda;"/><polygon points="1659.13 750.07 1657.04 749.02 1699.87 663.36 1712.09 657.25 1713.13 659.34 1701.61 665.1 1659.13 750.07" style="fill:#b5ccda;"/><polygon points="1589.69 827.69 1588.65 825.6 1603.69 818.08 1604.73 820.17 1589.69 827.69" style="fill:#b5ccda;"/><polygon points="1514.62 865.23 1513.57 863.14 1581.14 829.35 1582.19 831.45 1514.62 865.23" style="fill:#b5ccda;"/><polygon points="527.25 65.67 525.15 64.63 536.45 42.03 538.54 43.08 527.25 65.67" style="fill:#b5ccda;"/><polygon points="442.95 184.72 441.91 182.63 474.23 166.47 487.61 139.7 489.71 140.74 475.98 168.21 442.95 184.72" style="fill:#b5ccda;"/><polygon points="244.37 390.65 243.32 388.55 260.97 379.73 332.06 237.55 434.4 186.38 435.44 188.48 333.8 239.3 262.71 381.47 244.37 390.65" style="fill:#b5ccda;"/><polygon points="176.75 424.46 175.71 422.36 228.25 396.09 229.29 398.18 176.75 424.46" style="fill:#b5ccda;"/><polygon points="146.71 439.48 145.66 437.38 168.2 426.11 169.25 428.21 146.71 439.48" style="fill:#b5ccda;"/><polygon points="30.71 604.11 29.66 602.02 47.71 592.99 118.79 450.82 138.12 441.16 139.16 443.25 120.54 452.56 49.45 594.74 30.71 604.11" style="fill:#b5ccda;"/><polygon points="1520.38 849.78 1519.34 847.68 1620.4 797.15 1691.49 654.97 1693.68 653.88 1694.73 655.97 1693.23 656.72 1622.15 798.9 1520.38 849.78" style="fill:#b5ccda;"/><polygon points="522.18 50.67 520.08 49.62 527.62 34.56 529.71 35.6 522.18 50.67" style="fill:#b5ccda;"/><polygon points="441.21 173.02 440.16 170.93 465.85 158.08 475.02 139.76 477.11 140.8 467.6 159.83 441.21 173.02" style="fill:#b5ccda;"/><polygon points="411.16 188.05 410.11 185.95 432.64 174.69 433.68 176.79 411.16 188.05" style="fill:#b5ccda;"/><polygon points="242.7 378.91 241.66 376.81 252.59 371.35 323.68 229.17 402.61 189.7 403.65 191.8 325.42 230.92 254.33 373.09 242.7 378.91" style="fill:#b5ccda;"/><polygon points="182.49 409.01 181.45 406.92 234.05 380.62 235.09 382.71 182.49 409.01" style="fill:#b5ccda;"/><polygon points="159.98 420.27 158.93 418.18 173.94 410.67 174.99 412.76 159.98 420.27" style="fill:#b5ccda;"/><polygon points="21.43 596.17 20.39 594.08 39.32 584.61 110.41 442.43 111.78 441.75 112.83 443.84 112.16 444.18 41.07 586.36 21.43 596.17" style="fill:#b5ccda;"/><polygon points="1518.62 838.09 1517.58 835.99 1612.02 788.77 1683.11 646.59 1684.18 646.06 1685.22 648.15 1684.85 648.34 1613.76 790.51 1518.62 838.09" style="fill:#b5ccda;"/><polygon points="509.59 50.69 507.5 49.64 511.26 42.13 513.35 43.17 509.59 50.69" style="fill:#b5ccda;"/><polygon points="409.39 176.36 408.35 174.26 430.89 162.99 431.93 165.09 409.39 176.36" style="fill:#b5ccda;"/><polygon points="173.22 401.08 172.18 398.98 244.21 362.97 315.29 220.79 393.34 181.77 394.38 183.86 317.04 222.53 245.95 364.71 173.22 401.08" style="fill:#b5ccda;"/><polygon points="150.71 412.33 149.66 410.24 164.67 402.73 165.72 404.83 150.71 412.33" style="fill:#b5ccda;"/><polygon points="128.16 423.61 127.12 421.51 134.64 417.75 135.68 419.84 128.16 423.61" style="fill:#b5ccda;"/><polygon points="12.15 588.24 11.11 586.15 30.94 576.23 99.66 438.79 101.76 439.84 32.69 577.97 12.15 588.24" style="fill:#b5ccda;"/><polygon points="1524.36 822.64 1523.31 820.55 1603.64 780.39 1672.12 643.43 1674.21 644.47 1605.38 782.13 1524.36 822.64" style="fill:#b5ccda;"/><polygon points="407.62 164.67 406.58 162.57 436.75 147.49 437.79 149.59 407.62 164.67" style="fill:#b5ccda;"/><polygon points="370.11 183.43 369.06 181.34 376.56 177.59 377.61 179.68 370.11 183.43" style="fill:#b5ccda;"/><polygon points="141.43 404.4 140.39 402.3 235.83 354.59 306.91 212.41 346.54 192.59 347.59 194.69 308.66 214.15 237.57 356.33 141.43 404.4" style="fill:#b5ccda;"/><polygon points="126.41 411.91 125.37 409.81 132.88 406.06 133.93 408.15 126.41 411.91" style="fill:#b5ccda;"/><polygon points="95.21 427.51 94.17 425.41 110.28 417.36 111.32 419.45 95.21 427.51" style="fill:#b5ccda;"/><polygon points="10.46 576.52 9.41 574.42 22.56 567.85 83.03 446.91 85.13 447.95 24.31 569.59 10.46 576.52" style="fill:#b5ccda;"/><polygon points="1522.59 810.96 1521.55 808.86 1595.26 772.01 1663.23 636.06 1665.33 637.1 1597 773.75 1522.59 810.96" style="fill:#b5ccda;"/><polygon points="420.92 145.45 419.88 143.36 427.46 139.56 428.5 141.66 420.92 145.45" style="fill:#b5ccda;"/><polygon points="353.33 179.25 352.29 177.15 359.79 173.4 360.83 175.5 353.33 179.25" style="fill:#b5ccda;"/><polygon points="154.68 385.2 153.64 383.11 227.44 346.2 298.53 204.03 306.97 199.81 308.01 201.91 300.28 205.77 229.19 347.95 154.68 385.2" style="fill:#b5ccda;"/><polygon points="132.17 396.46 131.12 394.37 146.13 386.86 147.17 388.96 132.17 396.46" style="fill:#b5ccda;"/><polygon points="1.17 568.59 .13 566.49 14.18 559.47 85.27 417.29 101 409.43 102.04 411.52 87.01 419.04 15.93 561.21 1.17 568.59" style="fill:#b5ccda;"/><polygon points="1528.33 795.51 1527.29 793.42 1586.87 763.63 1654.36 628.65 1656.46 629.69 1588.62 765.37 1528.33 795.51" style="fill:#b5ccda;"/><polygon points="344.06 171.31 343.01 169.22 358.02 161.71 359.07 163.8 344.06 171.31" style="fill:#b5ccda;"/><polygon points="313.99 186.34 312.95 184.25 320.48 180.48 321.53 182.57 313.99 186.34" style="fill:#b5ccda;"/><polygon points="59.95 448.03 57.85 446.98 76.89 408.91 219.06 337.82 275.07 225.81 277.17 226.85 220.81 339.57 78.63 410.65 59.95 448.03" style="fill:#b5ccda;"/><polygon points="7.27 552.96 6.65 551.95 5.62 551.43 54.1 454.49 56.19 455.54 7.57 552.78 7.27 552.96" style="fill:#b5ccda;"/><polygon points="1526.56 783.83 1525.52 781.73 1578.5 755.25 1641.66 628.92 1643.75 629.97 1580.24 756.99 1526.56 783.83" style="fill:#b5ccda;"/><polygon points="334.79 163.37 333.74 161.28 356.25 150.02 357.3 152.12 334.79 163.37" style="fill:#b5ccda;"/><polygon points="268.34 219.36 266.25 218.32 277.64 195.52 279.74 196.56 268.34 219.36" style="fill:#b5ccda;"/><polygon points="47.37 448.04 45.27 447 68.51 400.53 210.68 329.44 258.73 233.34 260.83 234.38 212.42 331.18 70.25 402.27 47.37 448.04" style="fill:#b5ccda;"/><polygon points="2.09 538.58 0 537.54 3.93 529.68 6.02 530.73 2.09 538.58" style="fill:#b5ccda;"/><polygon points="1532.31 768.38 1531.26 766.29 1570.11 746.86 1632.82 621.44 1634.92 622.48 1571.86 748.61 1532.31 768.38" style="fill:#b5ccda;"/><polygon points="333.02 151.68 331.98 149.59 377.01 127.07 378.05 129.17 333.02 151.68" style="fill:#b5ccda;"/><polygon points="259.51 211.87 257.42 210.82 268.8 188.07 270.89 189.11 259.51 211.87" style="fill:#b5ccda;"/><polygon points="81.78 383.94 80.73 381.84 202.3 321.06 253.66 218.34 255.75 219.38 204.05 322.81 81.78 383.94" style="fill:#b5ccda;"/><polygon points="46.05 425.53 43.96 424.48 59.77 392.85 61.87 393.9 46.05 425.53" style="fill:#b5ccda;"/><polygon points="1530.55 756.69 1529.5 754.6 1561.73 738.48 1623.99 613.96 1626.09 615 1563.48 740.23 1530.55 756.69" style="fill:#b5ccda;"/><polygon points="346.27 132.49 345.22 130.4 407.18 99.41 409.2 95.38 411.3 96.42 408.93 101.16 346.27 132.49" style="fill:#b5ccda;"/><polygon points="72.51 376 71.46 373.91 193.92 312.68 256.13 188.26 258.23 189.3 195.66 314.42 72.51 376" style="fill:#b5ccda;"/><polygon points="44.76 402.96 42.67 401.92 51.17 384.92 53.26 385.96 44.76 402.96" style="fill:#b5ccda;"/><polygon points="1536.35 741.22 1535.3 739.13 1553.35 730.1 1615.17 606.48 1617.26 607.52 1555.09 731.84 1536.35 741.22" style="fill:#b5ccda;"/><polygon points="200.01 280.58 197.92 279.54 246.75 181.88 248.84 182.92 200.01 280.58" style="fill:#b5ccda;"/><polygon points="183.01 308.17 181.97 306.08 185.54 304.3 194.14 287.09 196.24 288.13 187.28 306.04 183.01 308.17" style="fill:#b5ccda;"/><polygon points="69.67 364.85 68.62 362.75 173.88 310.12 174.92 312.22 69.67 364.85" style="fill:#b5ccda;"/><polygon points="1533.55 730.05 1532.51 727.95 1544.97 721.72 1609.58 592.5 1611.67 593.55 1546.71 723.47 1533.55 730.05" style="fill:#b5ccda;"/><polygon points="194.5 266.46 192.41 265.41 237.47 175.29 239.56 176.33 194.5 266.46" style="fill:#b5ccda;"/><polygon points="104.57 334.82 103.53 332.73 141.05 313.97 142.1 316.06 104.57 334.82" style="fill:#b5ccda;"/><polygon points="82.06 346.08 81.01 343.99 96.02 336.49 97.06 338.58 82.06 346.08" style="fill:#b5ccda;"/><polygon points="1531.12 718.69 1530.07 716.6 1536.59 713.34 1596.51 593.51 1598.6 594.55 1538.33 715.08 1531.12 718.69" style="fill:#b5ccda;"/><rect x="395.35" y="40.67" width="8.43" height="2.34" transform="translate(183.92 380.81) rotate(-63.52)" style="fill:#b5ccda;"/><polygon points="200.25 229.82 198.16 228.78 231.98 161.13 234.07 162.17 200.25 229.82" style="fill:#b5ccda;"/><polygon points="192.74 244.83 190.65 243.78 194.4 236.28 196.5 237.32 192.74 244.83" style="fill:#b5ccda;"/><polygon points="177.67 274.97 175.58 273.93 179.37 266.35 181.46 267.4 177.67 274.97" style="fill:#b5ccda;"/><polygon points="146.98 301.05 145.94 298.95 169.07 287.39 170.12 289.48 146.98 301.05" style="fill:#b5ccda;"/><polygon points="131.94 308.57 130.89 306.48 138.41 302.72 139.45 304.81 131.94 308.57" style="fill:#b5ccda;"/><polygon points="56.86 346.11 55.82 344.01 93.37 325.24 94.41 327.33 56.86 346.11" style="fill:#b5ccda;"/><polygon points="1520.85 711.25 1519.81 709.16 1528.21 704.96 1587.23 586.91 1589.32 587.96 1529.95 706.7 1520.85 711.25" style="fill:#b5ccda;"/><polygon points="381.88 54.68 379.78 53.64 387.36 38.47 389.46 39.52 381.88 54.68" style="fill:#b5ccda;"/><polygon points="121.78 301.08 120.73 298.99 160.4 279.16 218.92 162.11 221.01 163.15 162.14 280.9 121.78 301.08" style="fill:#b5ccda;"/><polygon points="54.22 334.86 53.18 332.76 90.71 314 91.75 316.09 54.22 334.86" style="fill:#b5ccda;"/><polygon points="1510.63 703.79 1509.59 701.69 1519.83 696.58 1577.96 580.32 1580.05 581.36 1521.57 698.32 1510.63 703.79" style="fill:#b5ccda;"/><polygon points="368.01 57.26 365.92 56.22 374.32 39.43 376.41 40.47 368.01 57.26" style="fill:#b5ccda;"/><polygon points="126.65 286.07 125.61 283.98 152.01 270.77 205.89 163.03 207.98 164.07 153.76 272.52 126.65 286.07" style="fill:#b5ccda;"/><polygon points="59.08 319.85 58.04 317.76 80.55 306.5 81.6 308.6 59.08 319.85" style="fill:#b5ccda;"/><polygon points="28.98 334.9 27.94 332.81 50.53 321.52 51.58 323.61 28.98 334.9" style="fill:#b5ccda;"/><polygon points="1508.42 692.33 1507.37 690.23 1511.44 688.19 1568.68 573.72 1570.78 574.76 1513.19 689.94 1508.42 692.33" style="fill:#b5ccda;"/><polygon points="353.17 53.61 352.12 51.51 356.89 49.13 368.86 25.19 370.96 26.23 358.64 50.87 353.17 53.61" style="fill:#b5ccda;"/><polygon points="108.97 282.34 107.92 280.25 143.63 262.39 189.1 171.45 191.2 172.49 145.38 264.14 108.97 282.34" style="fill:#b5ccda;"/><polygon points="33.9 319.87 32.85 317.78 70.39 299.01 71.44 301.11 33.9 319.87" style="fill:#b5ccda;"/><polygon points="1498.02 684.95 1496.97 682.86 1503.06 679.81 1555.65 574.64 1557.74 575.69 1504.81 681.56 1498.02 684.95" style="fill:#b5ccda;"/><polygon points="327.51 53.86 326.47 51.77 348.86 40.57 349.13 41.11 350.58 41.84 350.26 42.49 327.51 53.86" style="fill:#b5ccda;"/><polygon points="113.85 267.33 112.81 265.23 135.25 254.01 172.33 179.85 174.43 180.9 136.99 255.75 113.85 267.33" style="fill:#b5ccda;"/><polygon points="46.27 301.12 45.22 299.02 75.24 284.02 76.28 286.11 46.27 301.12" style="fill:#b5ccda;"/><polygon points="1496.07 673.36 1495.45 672.25 1494.51 671.78 1550.14 560.53 1552.23 561.57 1496.42 673.19 1496.07 673.36" style="fill:#b5ccda;"/><polygon points="309.82 50.14 308.77 48.04 331.52 36.67 332.57 38.76 309.82 50.14" style="fill:#b5ccda;"/><polygon points="111.24 256.06 110.19 253.97 126.87 245.63 128.98 241.4 131.08 242.45 128.61 247.37 111.24 256.06" style="fill:#b5ccda;"/><polygon points="51.11 286.12 50.07 284.03 72.59 272.77 73.63 274.87 51.11 286.12" style="fill:#b5ccda;"/><polygon points="1486.87 665.38 1485.83 663.29 1486.3 663.05 1533.35 568.95 1535.45 569.99 1488.05 664.8 1486.87 665.38" style="fill:#b5ccda;"/><polygon points="299.65 42.65 298.61 40.56 306.13 36.79 307.17 38.89 299.65 42.65" style="fill:#b5ccda;"/><polygon points="1529.93 555.88 1527.84 554.84 1531.59 547.33 1533.68 548.37 1529.93 555.88" style="fill:#b5ccda;"/><polygon points="1484.79 646.16 1482.7 645.11 1520.33 569.85 1522.42 570.9 1484.79 646.16" style="fill:#b5ccda;"/><polygon points="1515.88 558.84 1513.78 557.8 1521.29 542.78 1523.39 543.83 1515.88 558.84" style="fill:#b5ccda;"/><polygon points="1500.87 588.86 1498.77 587.82 1502.53 580.31 1504.62 581.35 1500.87 588.86" style="fill:#b5ccda;"/><polygon points="1507.05 551.35 1504.96 550.31 1508.71 542.8 1510.8 543.85 1507.05 551.35" style="fill:#b5ccda;"/><polygon points="1484.54 596.38 1482.44 595.33 1489.95 580.32 1492.05 581.36 1484.54 596.38" style="fill:#b5ccda;"/><polygon points="1498.23 543.86 1496.13 542.81 1503.64 527.8 1505.73 528.84 1498.23 543.86" style="fill:#b5ccda;"/><polygon points="1475.71 588.89 1473.62 587.84 1477.37 580.34 1479.47 581.38 1475.71 588.89" style="fill:#b5ccda;"/><polygon points="1491.68 531.8 1489.59 530.76 1497.1 515.74 1499.19 516.79 1491.68 531.8" style="fill:#b5ccda;"/><polygon points="1484.18 546.81 1482.08 545.77 1485.83 538.26 1487.93 539.31 1484.18 546.81" style="fill:#b5ccda;"/><polygon points="1469.17 576.83 1467.07 575.79 1478.33 553.27 1480.43 554.31 1469.17 576.83" style="fill:#b5ccda;"/><polygon points="1769.84 235.2 1768.79 233.11 1813.82 210.6 1814.87 212.69 1769.84 235.2" style="fill:#b5ccda;"/><polygon points="1484.19 521.64 1482.09 520.6 1485.85 513.09 1487.94 514.14 1484.19 521.64" style="fill:#b5ccda;"/><polygon points="1457.92 574.18 1455.83 573.13 1467.09 550.62 1469.18 551.66 1457.92 574.18" style="fill:#b5ccda;"/><polygon points="1759.48 227.81 1758.44 225.72 1810.97 199.45 1812.01 201.54 1759.48 227.81" style="fill:#b5ccda;"/><polygon points="1486.09 492.7 1483.99 491.66 1487.76 484.12 1489.86 485.16 1486.09 492.7" style="fill:#b5ccda;"/><polygon points="1471.07 522.74 1468.97 521.7 1472.73 514.19 1474.82 515.24 1471.07 522.74" style="fill:#b5ccda;"/><polygon points="1448.55 567.77 1446.46 566.73 1453.97 551.71 1456.06 552.76 1448.55 567.77" style="fill:#b5ccda;"/><polygon points="1751.99 218.98 1750.95 216.89 1765.96 209.39 1767 211.48 1751.99 218.98" style="fill:#b5ccda;"/><polygon points="1478.15 483.43 1476.06 482.38 1490.34 453.83 1514.74 441.62 1515.78 443.72 1492.08 455.57 1478.15 483.43" style="fill:#b5ccda;"/><polygon points="1436.86 566.02 1434.77 564.97 1457.29 519.93 1459.38 520.97 1436.86 566.02" style="fill:#b5ccda;"/><polygon points="1752 206.4 1750.96 204.31 1758.46 200.56 1759.51 202.65 1752 206.4" style="fill:#b5ccda;"/><polygon points="1466.46 481.68 1464.36 480.63 1481.96 445.44 1514.78 429.03 1515.82 431.13 1483.7 447.19 1466.46 481.68" style="fill:#b5ccda;"/><polygon points="1428.92 556.74 1426.83 555.7 1445.6 518.16 1447.69 519.21 1428.92 556.74" style="fill:#b5ccda;"/><polygon points="1668.23 266.26 1666.13 265.21 1673.65 250.18 1675.74 251.22 1668.23 266.26" style="fill:#b5ccda;"/><polygon points="1614.72 369.11 1613.67 367.02 1615.75 365.97 1621.01 355.46 1623.1 356.51 1617.5 367.72 1614.72 369.11" style="fill:#b5ccda;"/><polygon points="1454.77 479.92 1452.67 478.87 1473.58 437.06 1522.31 412.7 1523.35 414.79 1475.32 438.81 1454.77 479.92" style="fill:#b5ccda;"/><polygon points="1417.23 555 1415.13 553.95 1422.65 538.91 1424.75 539.96 1417.23 555" style="fill:#b5ccda;"/><polygon points="1737.02 188.75 1735.98 186.66 1765.99 171.65 1767.04 173.74 1737.02 188.75" style="fill:#b5ccda;"/><polygon points="1656.54 264.49 1654.44 263.45 1678.46 215.42 1720.97 194.16 1722.01 196.26 1680.2 217.16 1656.54 264.49" style="fill:#b5ccda;"/><polygon points="1607.97 359.91 1606.93 357.82 1607.37 357.6 1613.08 346.17 1615.18 347.21 1609.11 359.34 1607.97 359.91" style="fill:#b5ccda;"/><polygon points="1560.88 383.45 1559.84 381.36 1589.94 366.31 1590.98 368.41 1560.88 383.45" style="fill:#b5ccda;"/><polygon points="1439.32 485.66 1437.23 484.62 1465.2 428.68 1544.84 388.86 1545.88 390.96 1466.94 430.42 1439.32 485.66" style="fill:#b5ccda;"/><polygon points="1405.52 553.27 1403.42 552.22 1414.71 529.64 1416.81 530.69 1405.52 553.27" style="fill:#b5ccda;"/><polygon points="1648.6 255.23 1646.5 254.18 1670.08 207.04 1766.01 159.07 1767.05 161.17 1671.82 208.78 1648.6 255.23" style="fill:#b5ccda;"/><polygon points="1591.16 355.74 1590.12 353.65 1598.99 349.21 1608.95 329.28 1611.05 330.33 1600.73 350.96 1591.16 355.74" style="fill:#b5ccda;"/><polygon points="1427.64 483.89 1425.54 482.85 1456.82 420.3 1567.37 365.02 1568.42 367.12 1458.56 422.05 1427.64 483.89" style="fill:#b5ccda;"/><polygon points="1397.59 543.99 1395.49 542.94 1406.78 520.37 1408.87 521.41 1397.59 543.99" style="fill:#b5ccda;"/><polygon points="1636.91 253.46 1634.82 252.41 1661.7 198.65 1766.02 146.49 1767.07 148.59 1663.44 200.4 1636.91 253.46" style="fill:#b5ccda;"/><polygon points="1595.4 336.47 1593.31 335.42 1604.79 312.47 1606.88 313.51 1595.4 336.47" style="fill:#b5ccda;"/><polygon points="1385.86 542.3 1383.77 541.26 1448.43 411.92 1582.66 344.8 1583.71 346.9 1450.18 413.66 1385.86 542.3" style="fill:#b5ccda;"/><polygon points="1628.97 244.19 1626.88 243.15 1653.31 190.28 1773.58 130.14 1774.63 132.23 1655.06 192.02 1628.97 244.19" style="fill:#b5ccda;"/><polygon points="1374.03 540.81 1371.94 539.76 1440.05 403.54 1582.23 332.45 1596.85 303.2 1598.95 304.24 1583.97 334.19 1441.8 405.28 1374.03 540.81" style="fill:#b5ccda;"/><polygon points="1621.04 234.92 1618.94 233.88 1644.94 181.89 1781.49 113.61 1782.54 115.71 1646.68 183.64 1621.04 234.92" style="fill:#b5ccda;"/><polygon points="1370 523.73 1367.9 522.69 1431.67 395.16 1573.85 324.07 1585.15 301.46 1587.25 302.5 1575.59 325.81 1433.41 396.9 1370 523.73" style="fill:#b5ccda;"/><polygon points="1616.85 218.14 1614.76 217.1 1636.55 173.51 1778.77 102.35 1778.81 102.38 1779.08 102.25 1779.25 102.6 1780.85 103.41 1780.47 104.17 1780.12 104.34 1638.3 175.26 1616.85 218.14" style="fill:#b5ccda;"/><polygon points="1362.07 514.45 1359.98 513.4 1423.29 386.77 1565.46 315.69 1580.98 284.66 1583.08 285.7 1567.21 317.43 1425.04 388.52 1362.07 514.45" style="fill:#b5ccda;"/><polygon points="1803.65 32.67 1801.55 31.63 1812.94 8.87 1815.03 9.91 1803.65 32.67" style="fill:#b5ccda;"/><polygon points="1616.43 193.84 1614.34 192.79 1628.17 165.13 1770.35 94.04 1782.75 69.23 1784.85 70.27 1772.09 95.79 1629.92 166.87 1616.43 193.84" style="fill:#b5ccda;"/><polygon points="1354.14 505.17 1352.04 504.12 1414.91 378.4 1557.08 307.31 1573.05 275.38 1575.14 276.43 1558.83 309.05 1416.65 380.14 1354.14 505.17" style="fill:#b5ccda;"/><polygon points="1612.27 177.02 1610.18 175.98 1619.79 156.75 1761.97 85.66 1797.43 14.74 1799.52 15.79 1763.71 87.41 1621.53 158.49 1612.27 177.02" style="fill:#b5ccda;"/><polygon points="1337.72 512.85 1335.63 511.81 1406.53 370.01 1548.7 298.93 1565.11 266.11 1567.21 267.15 1550.44 300.67 1408.27 371.76 1337.72 512.85" style="fill:#b5ccda;"/><polygon points="1608.16 160.11 1606.06 159.07 1611.41 148.37 1753.58 77.28 1785.75 12.94 1787.85 13.98 1755.33 79.02 1613.15 150.11 1608.16 160.11" style="fill:#b5ccda;"/><polygon points="1578.04 220.35 1575.94 219.31 1579.69 211.8 1581.79 212.84 1578.04 220.35" style="fill:#b5ccda;"/><polygon points="1563.02 250.37 1560.93 249.33 1564.68 241.82 1566.78 242.86 1563.02 250.37" style="fill:#b5ccda;"/><polygon points="1493.44 316.6 1492.4 314.5 1540.32 290.54 1549.64 271.91 1551.74 272.95 1542.07 292.29 1493.44 316.6" style="fill:#b5ccda;"/><polygon points="1334.46 494.23 1332.37 493.18 1398.15 361.63 1484.9 318.26 1485.94 320.35 1399.89 363.38 1334.46 494.23" style="fill:#b5ccda;"/><polygon points="1608.93 139.65 1607.88 137.56 1745.2 68.9 1770.28 18.75 1772.37 19.79 1746.95 70.64 1608.93 139.65" style="fill:#b5ccda;"/><polygon points="1547.57 256.13 1545.48 255.08 1575.51 195.03 1577.6 196.07 1547.57 256.13" style="fill:#b5ccda;"/><polygon points="1500.98 300.26 1499.93 298.17 1531.94 282.16 1541.71 262.62 1543.8 263.67 1533.68 283.91 1500.98 300.26" style="fill:#b5ccda;"/><polygon points="1322.48 493.06 1320.38 492.01 1389.76 353.25 1484.91 305.68 1485.95 307.77 1391.51 354.99 1322.48 493.06" style="fill:#b5ccda;"/><polygon points="1601.58 130.76 1600.54 128.66 1736.82 60.52 1766.3 1.57 1768.39 2.61 1738.57 62.26 1601.58 130.76" style="fill:#b5ccda;"/><polygon points="1539.64 246.86 1537.54 245.81 1563.82 193.26 1565.91 194.3 1539.64 246.86" style="fill:#b5ccda;"/><polygon points="1501.01 287.67 1499.97 285.58 1523.56 273.78 1533.77 253.35 1535.87 254.4 1525.3 275.53 1501.01 287.67" style="fill:#b5ccda;"/><polygon points="1318.61 475.65 1316.52 474.6 1381.38 344.87 1469.91 300.6 1470.96 302.7 1383.13 346.61 1318.61 475.65" style="fill:#b5ccda;"/><polygon points="1601.96 117.99 1600.92 115.9 1728.44 52.13 1753.97 1.08 1756.06 2.12 1730.18 53.88 1601.96 117.99" style="fill:#b5ccda;"/><polygon points="1531.7 237.58 1529.61 236.54 1552.13 191.49 1554.23 192.54 1531.7 237.58" style="fill:#b5ccda;"/><polygon points="1501.09 275.06 1500.05 272.96 1515.18 265.4 1525.84 244.08 1527.93 245.12 1516.92 267.15 1501.09 275.06" style="fill:#b5ccda;"/><polygon points="1310.68 466.36 1308.59 465.32 1373 336.49 1454.91 295.53 1455.96 297.63 1374.75 338.23 1310.68 466.36" style="fill:#b5ccda;"/><polygon points="1594.48 109.16 1593.43 107.07 1720.06 43.76 1741.94 0 1744.03 1.04 1721.8 45.5 1594.48 109.16" style="fill:#b5ccda;"/><polygon points="1520 235.84 1517.91 234.8 1547.95 174.72 1550.04 175.76 1520 235.84" style="fill:#b5ccda;"/><polygon points="1501.37 262.35 1500.32 260.26 1506.79 257.02 1510.26 250.1 1512.35 251.15 1508.54 258.76 1501.37 262.35" style="fill:#b5ccda;"/><polygon points="1302.75 457.07 1300.66 456.03 1364.62 328.11 1439.92 290.46 1440.96 292.55 1366.37 329.85 1302.75 457.07" style="fill:#b5ccda;"/><polygon points="1575.54 106.06 1574.49 103.97 1711.68 35.37 1729.36 0 1731.46 1.04 1713.42 37.12 1575.54 106.06" style="fill:#b5ccda;"/><polygon points="1525.37 199.95 1523.28 198.91 1542.04 161.39 1544.13 162.43 1525.37 199.95" style="fill:#b5ccda;"/><polygon points="1506.54 237.63 1504.44 236.59 1512.01 221.45 1514.1 222.49 1506.54 237.63" style="fill:#b5ccda;"/><polygon points="1490.29 255.32 1489.25 253.22 1498.42 248.64 1500.44 244.59 1502.54 245.63 1500.16 250.38 1490.29 255.32" style="fill:#b5ccda;"/><polygon points="1293.07 451.3 1290.98 450.25 1356.24 319.73 1428.98 283.35 1430.02 285.45 1357.98 321.47 1293.07 451.3" style="fill:#b5ccda;"/><polygon points="1562.51 100 1562 98.96 1560.88 98.6 1561.04 98.12 1703.3 26.99 1716.79 0 1718.89 1.04 1705.04 28.74 1562.51 100" style="fill:#b5ccda;"/><polygon points="1510.37 204.81 1508.28 203.77 1530.79 158.74 1532.89 159.78 1510.37 204.81" style="fill:#b5ccda;"/><polygon points="1468.5 253.64 1467.45 251.55 1490.36 240.1 1491.4 242.19 1468.5 253.64" style="fill:#b5ccda;"/><polygon points="1285.6 441.1 1283.5 440.06 1347.86 311.34 1422.38 274.08 1423.42 276.18 1349.6 313.09 1285.6 441.1" style="fill:#b5ccda;"/><polygon points="1547.98 104.46 1545.88 103.41 1552.74 89.7 1694.91 18.61 1704.22 0 1706.32 1.04 1696.66 20.36 1554.49 91.44 1547.98 104.46" style="fill:#b5ccda;"/><polygon points="1510.39 179.64 1508.29 178.59 1523.3 148.58 1525.4 149.62 1510.39 179.64" style="fill:#b5ccda;"/><polygon points="1461.9 244.37 1460.86 242.27 1482 231.7 1482.48 232.66 1483.62 233.17 1483.45 233.51 1483.05 233.79 1461.9 244.37" style="fill:#b5ccda;"/><polygon points="1281.9 423.35 1279.8 422.31 1339.48 302.96 1423.28 261.06 1424.32 263.15 1341.22 304.71 1281.9 423.35" style="fill:#b5ccda;"/><polygon points="1540.51 94.26 1538.41 93.21 1544.36 81.32 1686.53 10.23 1691.65 0 1693.75 1.04 1688.28 11.97 1546.1 83.06 1540.51 94.26" style="fill:#b5ccda;"/><polygon points="1499.14 176.98 1497.05 175.94 1512.06 145.92 1514.15 146.96 1499.14 176.98" style="fill:#b5ccda;"/><polygon points="1281.93 398.15 1279.83 397.1 1331.1 294.58 1473.27 223.5 1482 206.03 1484.1 207.07 1475.01 225.24 1332.84 296.32 1281.93 398.15" style="fill:#b5ccda;"/><polygon points="1529.22 91.69 1527.12 90.65 1535.98 72.94 1678.51 1.68 1678.77 2.21 1680.23 2.93 1679.9 3.6 1679.55 3.77 1537.72 74.68 1529.22 91.69" style="fill:#b5ccda;"/><polygon points="1281.94 372.97 1279.85 371.93 1322.72 286.2 1464.89 215.11 1504.57 135.76 1506.66 136.8 1466.63 216.86 1324.46 287.95 1281.94 372.97" style="fill:#b5ccda;"/><polygon points="1558.12 51.91 1557.08 49.82 1632.19 12.26 1633.23 14.35 1558.12 51.91" style="fill:#b5ccda;"/><polygon points="1521.73 81.52 1519.64 80.47 1523.49 72.76 1525.59 73.8 1521.73 81.52" style="fill:#b5ccda;"/><polygon points="1278.2 355.31 1276.11 354.27 1314.33 277.82 1456.51 206.73 1493.32 133.11 1495.42 134.15 1458.25 208.48 1316.08 279.56 1278.2 355.31" style="fill:#b5ccda;"/><polygon points="1559.05 38.87 1558 36.78 1580.53 25.52 1581.58 27.61 1559.05 38.87" style="fill:#b5ccda;"/><polygon points="1510.47 78.91 1508.37 77.86 1519.21 56.18 1535.39 48.08 1536.44 50.18 1520.96 57.92 1510.47 78.91" style="fill:#b5ccda;"/><polygon points="1487.92 123.99 1485.83 122.94 1500.84 92.92 1502.94 93.96 1487.92 123.99" style="fill:#b5ccda;"/><polygon points="1457.86 184.13 1455.76 183.08 1478.33 137.95 1480.42 138.99 1457.86 184.13" style="fill:#b5ccda;"/><polygon points="1266.96 352.66 1264.86 351.61 1305.95 269.44 1448.13 198.35 1451.91 190.79 1454 191.83 1449.87 200.09 1307.7 271.18 1266.96 352.66" style="fill:#b5ccda;"/><polygon points="1472.93 128.84 1470.83 127.79 1510.84 47.79 1581.49 12.46 1582.54 14.56 1512.58 49.54 1472.93 128.84" style="fill:#b5ccda;"/><polygon points="1450.38 173.95 1448.28 172.9 1467.08 135.3 1469.18 136.34 1450.38 173.95" style="fill:#b5ccda;"/><polygon points="1263.22 334.99 1261.12 333.95 1297.57 261.06 1439.75 189.97 1439.86 189.74 1440.03 189.82 1440.1 189.79 1440.14 189.88 1441.95 190.79 1441.49 191.71 1299.31 262.8 1263.22 334.99" style="fill:#b5ccda;"/><polygon points="1472.94 103.68 1470.84 102.64 1502.45 39.41 1559.9 10.69 1560.94 12.78 1504.2 41.16 1472.94 103.68" style="fill:#b5ccda;"/><polygon points="1457.92 133.7 1455.83 132.66 1467.09 110.14 1469.18 111.19 1457.92 133.7" style="fill:#b5ccda;"/><polygon points="1442.88 163.79 1440.79 162.74 1452.08 140.16 1454.17 141.21 1442.88 163.79" style="fill:#b5ccda;"/><polygon points="1399.71 200.03 1398.67 197.93 1431.36 181.59 1432.87 178.58 1434.96 179.62 1433.11 183.33 1399.71 200.03" style="fill:#b5ccda;"/><polygon points="1251.97 332.35 1249.87 331.31 1289.19 252.67 1383.65 205.44 1384.69 207.54 1290.94 254.42 1251.97 332.35" style="fill:#b5ccda;"/><polygon points="1457.49 109.42 1455.4 108.38 1494.07 31.03 1529.86 13.13 1530.9 15.23 1495.82 32.77 1457.49 109.42" style="fill:#b5ccda;"/><polygon points="1446.24 131.93 1444.14 130.89 1451.65 115.88 1453.74 116.92 1446.24 131.93" style="fill:#b5ccda;"/><polygon points="1434.95 154.51 1432.85 153.46 1436.62 145.92 1438.72 146.97 1434.95 154.51" style="fill:#b5ccda;"/><polygon points="1414.96 179.83 1413.92 177.74 1422.98 173.21 1429.06 161.06 1431.15 162.1 1424.73 174.95 1414.96 179.83" style="fill:#b5ccda;"/><polygon points="1240.28 330.58 1238.18 329.54 1280.81 244.3 1391.18 189.11 1392.22 191.2 1282.55 246.04 1240.28 330.58" style="fill:#b5ccda;"/><polygon points="1453.31 92.65 1451.21 91.6 1485.69 22.65 1507.33 11.83 1508.38 13.92 1487.43 24.39 1453.31 92.65" style="fill:#b5ccda;"/><polygon points="1434.54 130.18 1432.45 129.13 1447.46 99.11 1449.56 100.15 1434.54 130.18" style="fill:#b5ccda;"/><polygon points="1415.99 166.74 1415.34 165.63 1414.43 165.18 1428.69 136.65 1430.78 137.7 1416.34 166.57 1415.99 166.74" style="fill:#b5ccda;"/><polygon points="1347.19 201.14 1346.15 199.05 1383.69 180.28 1384.73 182.38 1347.19 201.14" style="fill:#b5ccda;"/><polygon points="1236.1 313.81 1234 312.76 1272.43 235.91 1331.15 206.55 1332.19 208.65 1274.17 237.66 1236.1 313.81" style="fill:#b5ccda;"/><polygon points="1445.37 83.38 1443.28 82.33 1477.31 14.27 1477.94 13.95 1478.64 15.37 1479.23 15.66 1445.37 83.38" style="fill:#b5ccda;"/><polygon points="1430.36 113.39 1428.27 112.35 1439.53 89.84 1441.62 90.88 1430.36 113.39" style="fill:#b5ccda;"/><polygon points="1422.85 128.42 1420.75 127.38 1424.51 119.86 1426.61 120.9 1422.85 128.42" style="fill:#b5ccda;"/><polygon points="1415.29 143.53 1413.2 142.49 1416.99 134.91 1419.08 135.95 1415.29 143.53" style="fill:#b5ccda;"/><polygon points="1392.34 166 1391.3 163.9 1406.22 156.44 1409.31 150.26 1411.41 151.31 1407.97 158.19 1392.34 166" style="fill:#b5ccda;"/><polygon points="1228.16 304.54 1226.07 303.5 1264.05 227.53 1376.2 171.46 1377.25 173.55 1265.79 229.28 1228.16 304.54" style="fill:#b5ccda;"/><polygon points="1433.68 81.61 1431.59 80.56 1457.88 27.98 1459.97 29.03 1433.68 81.61" style="fill:#b5ccda;"/><polygon points="1426.18 96.62 1424.08 95.58 1427.83 88.07 1429.93 89.11 1426.18 96.62" style="fill:#b5ccda;"/><polygon points="1418.67 111.63 1416.58 110.59 1420.33 103.08 1422.43 104.12 1418.67 111.63" style="fill:#b5ccda;"/><polygon points="1411.15 126.68 1409.05 125.64 1412.82 118.11 1414.91 119.15 1411.15 126.68" style="fill:#b5ccda;"/><polygon points="1384.86 157.17 1383.82 155.07 1397.84 148.06 1401.41 140.93 1403.5 141.97 1399.58 149.81 1384.86 157.17" style="fill:#b5ccda;"/><polygon points="1220.22 295.27 1218.13 294.23 1255.66 219.15 1376.24 158.86 1377.29 160.96 1257.41 220.89 1220.22 295.27" style="fill:#b5ccda;"/><polygon points="1429.5 64.83 1427.4 63.79 1446.18 26.23 1448.28 27.28 1429.5 64.83" style="fill:#b5ccda;"/><polygon points="1414.49 94.85 1412.4 93.81 1419.9 78.8 1421.99 79.84 1414.49 94.85" style="fill:#b5ccda;"/><polygon points="1395.59 132.65 1393.5 131.61 1404.88 108.83 1406.98 109.88 1395.59 132.65" style="fill:#b5ccda;"/><polygon points="1385.23 144.41 1384.19 142.32 1389.81 139.51 1390.28 140.45 1391.45 140.94 1391.27 141.29 1390.85 141.6 1385.23 144.41" style="fill:#b5ccda;"/><polygon points="1309.71 182.17 1308.67 180.08 1376.34 146.24 1377.38 148.34 1309.71 182.17" style="fill:#b5ccda;"/><polygon points="1208.53 293.5 1206.44 292.46 1247.28 210.77 1286.15 191.33 1287.19 193.43 1249.03 212.51 1208.53 293.5" style="fill:#b5ccda;"/><polygon points="1414.06 70.57 1411.97 69.52 1426.98 39.5 1429.07 40.54 1414.06 70.57" style="fill:#b5ccda;"/><polygon points="1406.55 85.58 1404.46 84.53 1408.21 77.03 1410.31 78.07 1406.55 85.58" style="fill:#b5ccda;"/><polygon points="1387.67 123.34 1385.58 122.3 1393.18 107.08 1395.28 108.13 1387.67 123.34" style="fill:#b5ccda;"/><polygon points="1309.72 169.59 1308.68 167.5 1331.19 156.24 1332.24 158.34 1309.72 169.59" style="fill:#b5ccda;"/><polygon points="1287.21 180.85 1286.17 178.76 1301.18 171.25 1302.22 173.34 1287.21 180.85" style="fill:#b5ccda;"/><polygon points="1200.6 284.23 1198.5 283.19 1238.9 202.39 1271.14 186.27 1272.19 188.36 1240.65 204.13 1200.6 284.23" style="fill:#b5ccda;"/><polygon points="1402.37 68.8 1400.28 67.75 1404.03 60.25 1406.13 61.29 1402.37 68.8" style="fill:#b5ccda;"/><polygon points="1391.11 91.33 1389.01 90.28 1396.53 75.26 1398.62 76.3 1391.11 91.33" style="fill:#b5ccda;"/><polygon points="1362.44 130.66 1361.4 128.57 1372.69 122.92 1381.48 105.36 1383.57 106.4 1374.44 124.66 1362.44 130.66" style="fill:#b5ccda;"/><polygon points="1272.21 175.78 1271.17 173.68 1323.7 147.42 1324.74 149.51 1272.21 175.78" style="fill:#b5ccda;"/><polygon points="1188.91 282.47 1186.81 281.42 1228.48 198.08 1230.58 199.13 1188.91 282.47" style="fill:#b5ccda;"/><polygon points="1390.68 67.03 1388.59 65.98 1396.1 50.96 1398.19 52.01 1390.68 67.03" style="fill:#b5ccda;"/><polygon points="1379.41 89.57 1377.32 88.53 1384.84 73.5 1386.93 74.54 1379.41 89.57" style="fill:#b5ccda;"/><polygon points="1371.83 104.73 1369.74 103.69 1373.54 96.07 1375.64 97.12 1371.83 104.73" style="fill:#b5ccda;"/><polygon points="1324.76 136.93 1323.72 134.84 1364.32 114.54 1365.5 112.17 1367.59 113.22 1366.06 116.28 1324.76 136.93" style="fill:#b5ccda;"/><polygon points="1272.23 163.2 1271.18 161.1 1308.7 142.34 1309.75 144.44 1272.23 163.2" style="fill:#b5ccda;"/><polygon points="1177.22 280.7 1175.12 279.66 1212.68 204.54 1214.78 205.58 1177.22 280.7" style="fill:#b5ccda;"/><polygon points="1371.48 80.3 1369.39 79.25 1373.15 71.73 1375.24 72.77 1371.48 80.3" style="fill:#b5ccda;"/><polygon points="1347.51 112.99 1346.46 110.89 1355.93 106.16 1357.78 102.46 1359.88 103.5 1357.68 107.9 1347.51 112.99" style="fill:#b5ccda;"/><polygon points="1309.76 131.86 1308.72 129.77 1338.82 114.72 1339.86 116.81 1309.76 131.86" style="fill:#b5ccda;"/><polygon points="1279.74 146.87 1278.7 144.77 1293.71 137.27 1294.75 139.36 1279.74 146.87" style="fill:#b5ccda;"/><polygon points="1161.77 286.45 1159.68 285.41 1200.97 202.81 1203.07 203.86 1161.77 286.45" style="fill:#b5ccda;"/><polygon points="1294.76 126.79 1293.72 124.69 1347.55 97.77 1357.68 77.51 1359.78 78.56 1349.3 99.52 1294.76 126.79" style="fill:#b5ccda;"/><polygon points="1138.53 307.79 1136.43 306.75 1189.27 201.06 1191.37 202.11 1138.53 307.79" style="fill:#b5ccda;"/><polygon points="1324.89 99.15 1323.85 97.05 1339.17 89.39 1342.06 83.62 1344.15 84.66 1340.91 91.14 1324.89 99.15" style="fill:#b5ccda;"/><polygon points="1287.27 117.96 1286.23 115.87 1316.29 100.83 1317.33 102.93 1287.27 117.96" style="fill:#b5ccda;"/><polygon points="1088.36 324.04 1087.32 321.95 1125.91 302.66 1177.58 199.31 1179.68 200.35 1127.65 304.4 1088.36 324.04" style="fill:#b5ccda;"/><polygon points="1111.39 299.96 1110.35 297.86 1117.53 294.28 1165.89 197.55 1167.99 198.59 1119.27 296.02 1111.39 299.96" style="fill:#b5ccda;"/><polygon points="1096.12 295.03 1095.08 292.93 1109.14 285.89 1154.2 195.78 1156.29 196.83 1110.89 287.64 1096.12 295.03" style="fill:#b5ccda;"/><polygon points="1079.51 290.76 1078.47 288.66 1100.76 277.52 1142.51 194.02 1144.61 195.06 1102.51 279.26 1079.51 290.76" style="fill:#b5ccda;"/><polygon points="1102.86 253.41 1100.76 252.37 1134.58 184.75 1136.67 185.79 1102.86 253.41" style="fill:#b5ccda;"/><polygon points="1089 273.44 1087.96 271.35 1092.38 269.13 1096.94 260.02 1099.03 261.07 1094.13 270.88 1089 273.44" style="fill:#b5ccda;"/><polygon points="1085.92 262.15 1083.82 261.11 1119.14 190.48 1121.23 191.52 1085.92 262.15" style="fill:#b5ccda;"/><polygon points="1090.93 226.99 1088.83 225.95 1100.1 203.41 1102.2 204.45 1090.93 226.99" style="fill:#b5ccda;"/><polygon points="1078.85 251.15 1076.75 250.11 1081.25 241.12 1083.34 242.16 1078.85 251.15" style="fill:#b5ccda;"/></g></svg>